<?xml version="1.0" standalone="no"?>
<!DOCTYPE svg PUBLIC "-//W3C//DTD SVG 1.1//EN" "http://www.w3.org/Graphics/SVG/1.1/DTD/svg11.dtd" >
<svg xmlns="http://www.w3.org/2000/svg">
<metadata></metadata>
<defs>
<font id="itc_berkeley_oldstyle_stdbook" horiz-adv-x="1062" >
<font-face units-per-em="2048" ascent="1444" descent="-604" />
<missing-glyph horiz-adv-x="530" />
<glyph unicode="&#xfb01;" horiz-adv-x="1093" d="M86 823v49h123v218q0 84 26 150.5t66.5 106t93 66t100.5 36t95 9.5q70 0 125 -10.5t85 -26t49.5 -33.5t25.5 -31t6 -22q0 -45 -56 -45q-59 0 -114 80q-40 33 -119 33q-129 0 -196.5 -71.5t-67.5 -178.5v-281h274q4 0 143 17q126 16 142 16v-547q0 -82 0.5 -130.5t5 -86.5 t8.5 -54t16.5 -26t22.5 -11t33 -1h82v-49h-402v49h76q39 0 39 21v571q0 66 -3.5 105t-12.5 55t-16.5 19t-24.5 3h-383v-465q0 -82 0.5 -130.5t5 -86.5t8.5 -54t16.5 -26t22.5 -11t33 -1h100v-49h-420v49h76q39 0 39 21v753h-123z" />
<glyph unicode="&#xfb02;" horiz-adv-x="1099" d="M86 823v49h123v293q0 58 15 104.5t37.5 76.5t55.5 52t63 33t65.5 17.5t57 8t44.5 1.5q111 0 209 -45l137 31v-1086q0 -82 0.5 -130.5t5 -86.5t8.5 -54t16.5 -26t22.5 -11t33 -1h82v-49h-402v49h76q39 0 39 21v1104q0 36 -3.5 63.5t-17.5 60.5t-39 54.5t-70.5 36 t-108.5 14.5q-28 0 -57.5 -7.5t-66 -26.5t-60 -62t-23.5 -105v-330h166v-49h-166v-465q0 -82 0.5 -130.5t5 -86.5t8.5 -54t16.5 -26t22.5 -11t33 -1h82v-49h-402v49h76q39 0 39 21v753h-123z" />
<glyph unicode="&#xfb03;" horiz-adv-x="1658" d="M86 823v49h123v226q0 58 15 104.5t37.5 76.5t55.5 52t63 33t65.5 17.5t57 8t44.5 1.5q93 0 168 -29t104 -80q52 92 147 134t189 42q70 0 125 -10.5t85 -26t49.5 -33.5t25.5 -31t6 -22q0 -45 -55 -45q-60 0 -115 80q-40 33 -119 33q-129 0 -196.5 -71.5t-67.5 -178.5v-281 h274q5 0 144 17q126 16 141 16v-547q0 -82 0.5 -130.5t5 -86.5t8.5 -54t16.5 -26t22.5 -11t33 -1h82v-49h-401v49h75q39 0 39 21v571q0 66 -3.5 105t-12.5 55t-16.5 19t-24.5 3h-383v-465q0 -82 0.5 -130.5t5 -86.5t8.5 -54t16.5 -26t22.5 -11t33 -1h100v-49h-420v49h76 q39 0 39 21v753h-446v-465q0 -82 0.5 -130.5t5 -86.5t8.5 -54t16.5 -26t22.5 -11t33 -1h82v-49h-402v49h76q39 0 39 21v753h-123zM328 872h446v191q0 70 -9 116t-34 83.5t-73 55t-123 17.5q-21 0 -44 -3.5t-53.5 -16.5t-53.5 -33.5t-39.5 -58.5t-16.5 -88v-263z" />
<glyph unicode="&#xfb04;" horiz-adv-x="1665" d="M86 823v49h123v226q0 58 15 104.5t37.5 76.5t55.5 52t63 33t65.5 17.5t57 8t44.5 1.5q82 0 150.5 -22t105.5 -64q74 153 309 153q111 0 209 -45l137 31v-1086q0 -82 0.5 -130.5t5 -86.5t8.5 -54t16.5 -26t22.5 -11t33 -1h82v-49h-401v49h75q39 0 39 21v1104 q0 36 -3.5 63.5t-17.5 60.5t-39 54.5t-70.5 36t-108.5 14.5q-28 0 -57.5 -7.5t-66 -26.5t-60 -62t-23.5 -105v-330h166v-49h-166v-465q0 -82 0.5 -130.5t5 -86.5t8.5 -54t16.5 -26t22.5 -11t33 -1h82v-49h-402v49h76q39 0 39 21v753h-446v-465q0 -82 0.5 -130.5t5 -86.5 t8.5 -54t16.5 -26t22.5 -11t33 -1h82v-49h-402v49h76q39 0 39 21v753h-123zM328 872h446v191q0 70 -9 116t-34 83.5t-73 55t-123 17.5q-21 0 -44 -3.5t-53.5 -16.5t-53.5 -33.5t-39.5 -58.5t-16.5 -88v-263z" />
<glyph horiz-adv-x="2048" />
<glyph horiz-adv-x="2048" />
<glyph unicode="&#xd;" horiz-adv-x="2048" />
<glyph unicode=" "  horiz-adv-x="530" />
<glyph unicode="&#x09;" horiz-adv-x="530" />
<glyph unicode="&#xa0;" horiz-adv-x="530" />
<glyph unicode="!" horiz-adv-x="569" d="M193 1300h69q32 0 44.5 -2t25 -15.5t15.5 -41.5t3 -82q0 -34 -35 -833h-53zM211 55q0 38 23.5 60t60.5 22t60.5 -22t23.5 -60t-23.5 -60t-60.5 -22t-60.5 22t-23.5 60z" />
<glyph unicode="&#x22;" horiz-adv-x="720" d="M156 1225q0 114 65 114q66 0 66 -114q0 -28 -4 -74l-33 -395q-3 -64 -29 -64q-25 0 -28 64l-33 395q-4 40 -4 74zM434 1225q0 114 66 114q65 0 65 -114q0 -28 -4 -74l-33 -395q-3 -64 -28 -64q-26 0 -29 64l-33 395q-4 40 -4 74z" />
<glyph unicode="#" d="M2 373l53 116h189l73 322h-213l54 117h186l72 317h86l-72 -317h332l72 317h86l-72 -317h215l-53 -117h-191l-71 -322h210l-53 -116h-186l-72 -318h-86l72 318h-330l-72 -318h-86l72 318h-215zM330 489h332l71 322h-330z" />
<glyph unicode="$" d="M139 170q0 18 14.5 28.5t34.5 10.5q81 0 144 -133q17 -13 47 -19t53.5 -7t69.5 -1v569q-61 19 -106 37.5t-94 48t-80 63t-51.5 82.5t-20.5 107q0 74 29 135t78.5 102t111.5 67t133 36v148h57v-144q142 0 226.5 -53.5t84.5 -105.5q0 -17 -11 -27t-28 -10q-79 0 -151 123 q-42 24 -121 24v-526q109 -32 183 -70.5t114 -83.5t56 -91t16 -103q0 -100 -52 -179t-133.5 -125.5t-183.5 -64.5v-151h-57v143q-80 0 -145 12.5t-104.5 31.5t-66 42.5t-37 44.5t-10.5 39zM256 1010q0 -106 64 -167.5t182 -99.5v506q-101 -15 -173.5 -78.5t-72.5 -160.5z M559 55q107 15 184.5 95.5t77.5 187.5q0 57 -20.5 101t-59.5 74.5t-81.5 50.5t-100.5 38v-547z" />
<glyph unicode="%" horiz-adv-x="1630" d="M147 963q0 158 92.5 267t247.5 109q86 0 151.5 -47t98.5 -120t33 -158q0 -158 -92.5 -267.5t-247.5 -109.5q-86 0 -151.5 47.5t-98.5 120.5t-33 158zM248 1014q0 -35 4.5 -72.5t19 -83.5t37.5 -81.5t64 -60t94 -24.5q99 0 151 73t52 198q0 28 -3.5 58.5t-11.5 68.5 t-24.5 71t-39.5 61.5t-59 45t-81 16.5q-99 0 -151 -72.5t-52 -197.5zM483 -96q25 159 166.5 481.5t302.5 612t250 388.5h78q-105 -118 -251 -382t-270.5 -562t-166.5 -497zM860 287q0 158 92.5 267.5t247.5 109.5q86 0 151.5 -47.5t98.5 -120.5t33 -158q0 -158 -92.5 -267.5 t-247.5 -109.5q-86 0 -151.5 47.5t-98.5 120.5t-33 158zM961 338q0 -35 4.5 -72.5t19 -83.5t37.5 -81.5t64 -60t94 -24.5q99 0 150.5 73t51.5 198q0 28 -3.5 58.5t-11.5 68.5t-24.5 71t-39.5 61.5t-59 45t-81 16.5q-99 0 -150.5 -72.5t-51.5 -197.5z" />
<glyph unicode="&#x26;" horiz-adv-x="1669" d="M88 420q0 147 89.5 253t234.5 142q-101 142 -101 238q0 81 50.5 148.5t126.5 102.5t157 35q123 0 182 -47l-22 -104q-4 -19 -6.5 -27.5t-8.5 -17t-14 -8.5q-14 0 -14 18q0 35 -33 59t-70.5 32.5t-72.5 8.5q-78 0 -131.5 -40t-53.5 -126q0 -60 87.5 -188t209 -261 t250 -253.5t209.5 -173.5q61 54 93 133t32 164q0 91 -30 169.5t-96.5 131.5t-158.5 53q-34 0 -59.5 -11t-58.5 -36l-27 35q67 86 209 86q19 0 41.5 -2.5t39 -5t44 -7.5t43.5 -8q134 -22 174 -22q64 0 106 14t59 34.5t25.5 40.5t15.5 34t19 14q19 0 19 -37v-106q0 -17 -8 -34 t-26.5 -35t-57 -29t-91.5 -11q-60 0 -176 29l-4 -4q88 -98 88 -240q0 -107 -45 -207.5t-123 -177.5q124 -98 221 -98q81 0 142 55l28 -37q-179 -135 -233 -135q-78 0 -258 123q-170 -123 -436 -123q-89 0 -171 16t-157 51.5t-130.5 88t-88.5 130.5t-33 173zM207 485 q0 -66 18.5 -130t60 -123.5t102 -104t150 -71.5t197.5 -27q175 0 318 92l-607 637h-28q-66 0 -115.5 -44t-72.5 -104.5t-23 -124.5z" />
<glyph unicode="'" horiz-adv-x="378" d="M125 1225q0 114 65 114q66 0 66 -114q0 -28 -4 -74l-33 -395q-3 -64 -29 -64q-25 0 -28 64l-33 395q-4 40 -4 74z" />
<glyph unicode="(" horiz-adv-x="681" d="M119 584q0 111 27.5 230.5t82.5 240t150 228t217 175.5l16 -53q-108 -62 -187.5 -158t-120.5 -203.5t-60 -208.5t-19 -200q0 -86 13 -181t44.5 -200.5t77.5 -195.5t119 -163.5t162 -107.5l-20 -53q-108 31 -197 107t-144 169.5t-93 201.5t-53 201t-15 171z" />
<glyph unicode=")" horiz-adv-x="681" d="M41 1405l20 53q108 -31 197 -107t144 -169.5t93 -201.5t53 -201t15 -171q0 -111 -27.5 -230.5t-82.5 -240t-150 -228t-217 -175.5l-16 53q108 62 187.5 158t120.5 203.5t60 208.5t19 200q0 86 -13 181t-44.5 200.5t-77.5 195.5t-119 163.5t-162 107.5z" />
<glyph unicode="*" horiz-adv-x="1024" d="M188 899q46 2 158.5 38t112.5 64t-113 64.5t-158 38.5q24 71 74 127q28 -39 107 -111.5t108 -72.5q21 0 21 30q0 97 -58 256q9 1 25.5 2.5t28.5 2.5t18 1t18 -1t28.5 -2.5t25.5 -2.5q-58 -159 -58 -256q0 -30 21 -30q29 0 108 72.5t107 111.5q50 -56 74 -127 q-45 -2 -158 -38.5t-113 -64.5t112.5 -64t158.5 -38q-24 -71 -74 -127q-28 39 -107 111.5t-108 72.5q-21 0 -21 -30q0 -97 58 -256q-11 -1 -37.5 -4.5t-34.5 -3.5t-34.5 3.5t-37.5 4.5q58 159 58 256q0 30 -21 30q-29 0 -108 -72.5t-107 -111.5q-50 56 -74 127z" />
<glyph unicode="+" d="M113 528v78h379v428h77v-428h379v-78h-379v-432h-77v432h-379z" />
<glyph unicode="," horiz-adv-x="530" d="M182 47q0 33 23 54.5t57 21.5q68 0 107 -59.5t39 -131.5q0 -81 -44.5 -147t-119.5 -111l-27 29q49 41 83 97t34 112q0 60 -39 70q-27 -9 -39 -9q-33 0 -53.5 20.5t-20.5 53.5z" />
<glyph unicode="-" horiz-adv-x="681" d="M70 375q0 8 67 114h342q39 0 68.5 4.5t44.5 8.5t18 4q4 -4 4 -6t-0.5 -4.5t-2 -6.5t-3 -7.5t-4.5 -9.5t-6 -11t-8.5 -14.5t-10 -17.5t-12 -21t-14.5 -25h-408q-33 0 -50 -7t-19 -7q-6 0 -6 6z" />
<glyph unicode="." horiz-adv-x="530" d="M182 55q0 38 23.5 60t60.5 22t60.5 -22t23.5 -60t-23.5 -60t-60.5 -22t-60.5 22t-23.5 60z" />
<glyph unicode="/" horiz-adv-x="569" d="M-47 -39l549 1378h114l-548 -1378h-115z" />
<glyph unicode="0" d="M88 618q0 154 39.5 290.5t105 229.5t151 147t175.5 54q94 0 168 -43.5t119.5 -111t75.5 -157.5t41.5 -175t11.5 -170q0 -155 -39.5 -291t-104.5 -229t-150 -147t-175 -54q-94 0 -168.5 43.5t-120 111.5t-76 157.5t-42 174.5t-11.5 170zM217 721q0 -51 3.5 -105.5 t13 -123.5t24.5 -131t41 -123t60 -105t83.5 -71t108.5 -27q41 0 80.5 16t79 56t69 100.5t48 157t18.5 217.5q0 51 -3.5 105.5t-13 123t-24.5 130.5t-41 122.5t-60 104.5t-83.5 71t-108.5 27q-41 0 -80.5 -16t-79 -55.5t-69 -99.5t-48 -156.5t-18.5 -217.5z" />
<glyph unicode="1" d="M244 0v55h198q41 0 41 21v786q0 152 -2 225t-14.5 112.5t-25 44.5t-46.5 5h-151v56q131 0 246 17t118 17v-985q0 -141 8.5 -207.5t20.5 -79t39 -12.5h184v-55h-616z" />
<glyph unicode="2" d="M76 10q0 11 175 205.5t218 237.5q102 105 161.5 230.5t59.5 238.5q0 162 -74 243.5t-213 81.5q-161 0 -280 -96l-25 39q71 67 165.5 108t187.5 41q170 0 271 -98t101 -268q0 -63 -14.5 -125t-45.5 -122.5t-61.5 -109.5t-80.5 -108.5t-82.5 -95.5t-87.5 -93l-197 -206 q120 3 181.5 5.5t305.5 8.5q74 2 109 10t57 37q9 12 19 12q16 0 16 -18q0 -21 -63 -168h-773q-30 0 -30 10z" />
<glyph unicode="3" d="M82 49l22 53q165 -79 281 -79q171 0 293.5 116t122.5 287q0 37 -8 73t-30.5 75t-57.5 68t-93 48t-133 19h-78v55q128 0 219 74.5t91 191.5q0 102 -69 159.5t-173 57.5q-88 0 -173 -33t-146 -92l-33 37q74 83 179 131.5t214 48.5q134 0 230 -69t96 -197q0 -178 -224 -307 v-4q149 -15 238.5 -103.5t89.5 -236.5q0 -102 -49 -190.5t-128 -146.5t-175.5 -91t-194.5 -33q-79 0 -163.5 23t-147.5 65z" />
<glyph unicode="4" d="M41 522v19q295 397 678 798h35v-710q59 0 90.5 1.5t71 10.5t57.5 27q10 10 20 10q15 0 15 -14q0 -5 -52 -142h-202v-524q-92 -47 -111 -47q-14 0 -14 22q0 7 6 143t6 173v233h-600zM182 629h459v551q-18 -20 -67 -75t-66.5 -74.5t-57.5 -65.5t-63.5 -74.5t-60 -73 t-71 -90t-73.5 -98.5z" />
<glyph unicode="5" d="M106 12l19 51q57 -22 106 -31t129 -9q37 0 87 13t110.5 46t110.5 80.5t84 125t34 171.5q0 189 -111.5 277.5t-305.5 88.5q-65 0 -122 -9t-65 -9q-14 0 -14 16q0 10 15 75t47 197.5t49 204.5q102 -19 167 -28q85 -12 172 -12q209 0 236 40q10 17 23 17q14 0 14 -19 t-27 -106q-77 -51 -219 -51q-158 0 -330 69l-71 -315q140 18 184 18q99 0 186 -24t158 -71.5t112.5 -128t41.5 -185.5q0 -72 -23 -146t-72 -145.5t-118 -127.5t-169 -90t-216 -34q-114 0 -222 51z" />
<glyph unicode="6" d="M111 539q0 181 59 332t162.5 253t247 158.5t309.5 56.5v-55q-243 0 -420 -149t-215 -390q196 156 336 156q89 0 163.5 -38.5t122 -102t73.5 -143t26 -164.5q0 -119 -43 -216.5t-110 -155.5t-142.5 -89t-147.5 -31q-43 0 -89.5 10t-108.5 46.5t-109 96t-80.5 170 t-33.5 255.5zM236 543q0 -81 17 -166.5t53 -169.5t103 -137.5t156 -53.5q23 0 51.5 5.5t73.5 29.5t79.5 62.5t60.5 114t26 175.5q0 59 -11.5 115.5t-36.5 108.5t-61 91t-89.5 62t-118.5 23q-142 0 -293 -125z" />
<glyph unicode="7" d="M137 1192q0 8 17 127q93 -27 165 -35q69 -10 168 -10q119 0 252 15t222 46q12 4 24 4q10 0 10 -10q0 -3 -4 -8.5t-9.5 -12t-6.5 -8.5q-80 -97 -166.5 -254.5t-161.5 -338.5t-123.5 -379.5t-48.5 -356.5q0 -20 -20 -20q-22 0 -125 47q116 617 510 1221q-278 -64 -465 -64 q-97 0 -167.5 9t-70.5 28z" />
<glyph unicode="8" d="M86 344q0 124 68.5 207.5t191.5 140.5q-102 42 -162.5 118.5t-60.5 180.5q0 59 28.5 119.5t80 112t134.5 84t181 32.5q160 0 266.5 -90.5t106.5 -240.5q0 -186 -246 -293v-4q28 -7 47.5 -13t53.5 -20t58 -29.5t53 -42t47 -57.5t30 -75.5t12 -96.5q0 -120 -64.5 -216.5 t-169 -148t-225.5 -51.5q-180 0 -305 103t-125 280zM205 373q0 -153 91 -255t243 -102q139 0 228 82.5t89 218.5q0 58 -15 103t-39 75.5t-64.5 55.5t-81 41t-99.5 33l-141 41q-97 -26 -154 -108t-57 -185zM242 1034q0 -119 101 -197.5t269 -95.5q87 30 138 94t51 154 q0 125 -82 210t-207 85q-116 0 -193 -67.5t-77 -182.5z" />
<glyph unicode="9" d="M88 848q0 96 28.5 178.5t74 139t104 96.5t118.5 58.5t117 18.5q29 0 60.5 -5t74 -20.5t81 -40t77 -69.5t66.5 -103.5t45.5 -145.5t17.5 -193q0 -181 -59 -332t-162.5 -253.5t-247 -159t-309.5 -56.5v55q243 0 420 149t215 390q-196 -156 -336 -156q-89 0 -163.5 38.5 t-122 102.5t-73.5 143.5t-26 164.5zM207 897q0 -59 11.5 -115.5t36.5 -108.5t61 -90.5t89.5 -61.5t118.5 -23q142 0 293 125q1 7 3.5 37t4.5 56.5t2 41.5q0 81 -17 166.5t-53 169t-103 137t-156 53.5q-23 0 -51.5 -5.5t-73.5 -29.5t-79.5 -62.5t-60.5 -114t-26 -175.5z" />
<glyph unicode=":" horiz-adv-x="530" d="M182 55q0 38 23.5 60t60.5 22t60.5 -22t23.5 -60t-23.5 -60t-60.5 -22t-60.5 22t-23.5 60zM182 823q0 38 23.5 60t60.5 22t60.5 -22t23.5 -60t-23.5 -60t-60.5 -22t-60.5 22t-23.5 60z" />
<glyph unicode=";" horiz-adv-x="530" d="M182 47q0 33 23 54.5t57 21.5q68 0 107 -59.5t39 -131.5q0 -81 -44.5 -147t-119.5 -111l-27 29q49 41 83 97t34 112q0 60 -39 70q-27 -9 -39 -9q-33 0 -53.5 20.5t-20.5 53.5zM182 823q0 38 23.5 60t60.5 22t60.5 -22t23.5 -60t-23.5 -60t-60.5 -22t-60.5 22t-23.5 60z " />
<glyph unicode="&#x3c;" d="M113 537v57l835 428v-90l-725 -367l725 -366v-93z" />
<glyph unicode="=" d="M113 332v78h835v-78h-835zM113 719v78h835v-78h-835z" />
<glyph unicode="&#x3e;" d="M113 106v91l727 366l-727 369v90l835 -428v-57z" />
<glyph unicode="?" horiz-adv-x="757" d="M72 1182q0 5 7.5 22t24 52t23.5 51q78 32 158 32q152 0 258 -86t106 -235q0 -54 -18 -105t-53 -96t-65.5 -76.5t-74.5 -70.5q-9 -8 -27.5 -24.5t-27.5 -24.5t-20 -20t-16 -21t-5 -17q0 -18 22 -54.5t46 -66.5q8 -10 21.5 -13t21.5 -5.5t8 -13.5q0 -6 -12.5 -16.5 t-59.5 -44.5q-7 -5 -11.5 -8t-11.5 -8.5t-14 -10.5q-78 83 -125 227q123 102 188.5 177t87 130t21.5 123q0 121 -77.5 185.5t-200.5 64.5q-55 0 -86.5 -10t-39 -22t-14.5 -22t-18 -10q-6 0 -11 5t-5 12zM258 55q0 38 23.5 60t60.5 22t60.5 -22t23.5 -60t-23.5 -60t-60.5 -22 t-60.5 22t-23.5 60z" />
<glyph unicode="@" horiz-adv-x="1638" d="M74 614q0 120 38.5 234t104.5 205t153.5 168t185 128.5t200.5 80t198 28.5q178 0 320.5 -75.5t222.5 -209t80 -299.5q0 -110 -53.5 -220.5t-133.5 -190t-174.5 -130t-175.5 -50.5q-52 0 -69 23t-17 83q0 135 2 205l-6 2q-58 -105 -152 -181.5t-198 -76.5q-94 0 -144 66 t-50 161q0 112 48 216t132.5 182t207 125t263.5 47q38 0 54 18.5t32 20.5q20 0 20 -15q0 -5 -25 -116.5t-50 -270.5t-25 -278v-44t1.5 -33.5t4.5 -27t9 -16.5t14.5 -12t21.5 -3q50 0 112.5 36t122 99t100 164t40.5 215q0 94 -41 186.5t-111.5 165t-173.5 117.5t-217 45 q-157 0 -301 -57t-250 -153.5t-169.5 -231t-63.5 -282.5q0 -59 16.5 -125t49 -137t87 -135t124.5 -115t168.5 -81t211.5 -30q355 0 639 293l29 -35q-78 -75 -149 -129.5t-158 -102.5t-185.5 -73t-206.5 -25q-141 0 -261.5 40t-202 105.5t-139.5 150.5t-84.5 174t-26.5 177z M526 569q0 -89 26 -122t87 -33q99 0 187.5 97t142 250.5t61.5 321.5h-72q-82 0 -153.5 -32.5t-121.5 -86t-86 -121t-53.5 -138t-17.5 -136.5z" />
<glyph unicode="A" horiz-adv-x="1251" d="M-16 0v55q74 0 90 5.5t28 35.5l519 1229q74 23 106 23q12 0 12 -15q0 -10 -17 -24.5t-17 -38.5q0 -57 149 -493.5t215 -592.5q19 -45 29.5 -66.5t30 -42t40.5 -20.5h76v-55h-422v55h103q25 0 32 4t7 17q0 19 -146 422h-481q-123 -304 -123 -392q0 -51 51 -51h133v-55 h-415zM365 565h428l-189 578q-140 -324 -239 -578z" />
<glyph unicode="B" horiz-adv-x="1099" d="M59 1245v55h519q69 0 125 -12t93 -30t64.5 -44.5t42.5 -51.5t23.5 -54.5t11 -50t2.5 -41.5q0 -99 -64 -171.5t-163 -113.5v-4q140 -32 227.5 -123t87.5 -227q0 -74 -28.5 -139.5t-84.5 -119.5t-151 -86t-217 -32h-434v55h84q41 0 41 21v895q0 93 -1.5 142t-8.5 81.5 t-17.5 41.5t-30.5 9h-121zM371 354q0 -74 1 -121t6 -80.5t8.5 -49.5t16 -24.5t21.5 -9.5t31 -1h110q80 0 141 19.5t96 49t57 69t29 74t7 70.5q0 46 -9 89t-36.5 92t-71 85t-120.5 60t-177 24h-110v-346zM371 762q168 0 274 -19q58 36 90.5 64.5t56 75t23.5 106.5 q0 107 -77 175.5t-189 68.5h-103q-75 0 -75 -21v-450z" />
<glyph unicode="C" horiz-adv-x="1327" d="M106 600q0 162 63 301.5t170.5 234.5t251 149t302.5 54q171 0 336 -65l-10 -121q-2 -25 -6.5 -34t-18.5 -9q-9 0 -12 7.5t-6 35.5q-4 36 -96.5 77.5t-213.5 41.5q-188 0 -329.5 -83.5t-216 -230t-74.5 -333.5q0 -134 45.5 -246.5t123.5 -188.5t183 -118.5t223 -42.5 q84 0 171 23t153 69.5t74 103.5q4 35 22 35q9 0 13 -3.5t5 -8t1 -12.5q0 -39 -11 -170q-215 -105 -467 -105q-201 0 -352.5 73t-237.5 218.5t-86 347.5z" />
<glyph unicode="D" horiz-adv-x="1402" d="M59 1245v55h619q152 0 274.5 -51.5t199 -139.5t117 -200t40.5 -237q0 -59 -10 -120.5t-33 -128t-58 -127t-89.5 -115t-122 -94.5t-160.5 -63.5t-201 -23.5h-522v55h84q41 0 41 21v895q0 93 -1.5 142t-8.5 81.5t-17.5 41.5t-30.5 9h-121zM371 354q0 -74 1 -121t6 -80.5 t8.5 -49.5t16 -24.5t21.5 -9.5t31 -1h168q69 0 130.5 9.5t125.5 32t114.5 64.5t91 101.5t62.5 148.5t22 201t-25.5 205.5t-70.5 158.5t-101.5 113.5t-123 76t-130.5 41t-128 13.5h-144q-75 0 -75 -21v-858z" />
<glyph unicode="E" horiz-adv-x="1138" d="M59 1245v55h963l-21 -141q0 -2 -1 -7q-4 -25 -11 -27l-6 -1q-16 0 -20 25q-3 23 -18 34.5t-44 20.5q-92 29 -303 29h-152q-75 0 -75 -21v-467h194q141 0 209 8.5t82 21t14 38.5v82h52v-340h-52v76q0 29 -11 37q-22 15 -166 16h-62h-260v-330q0 -74 1 -121t6 -80.5 t8.5 -49.5t16 -24.5t21.5 -9.5t31 -1h131q405 0 446 100q8 20 23 20q14 0 14 -14q0 -12 -51 -174h-905v55h84q41 0 41 21v895q0 93 -1.5 142t-8.5 81.5t-17.5 41.5t-30.5 9h-121z" />
<glyph unicode="F" horiz-adv-x="1099" d="M59 1245v55h963l-21 -141q0 -2 -1 -7q-4 -25 -11 -27l-6 -1q-16 0 -20 25q-3 23 -18 34.5t-44 20.5q-92 29 -303 29h-152q-75 0 -75 -21v-467h194q141 0 209 8.5t82 21t14 38.5v82h52v-340h-52v76q0 29 -11 37q-22 15 -166 16h-62h-260v-330q0 -141 8.5 -207.5t20 -79 t38.5 -12.5h115v-55h-440v55h84q41 0 41 21v895q0 93 -1.5 142t-8.5 81.5t-17.5 41.5t-30.5 9h-121z" />
<glyph unicode="G" horiz-adv-x="1402" d="M106 621q0 134 42.5 250t117.5 201t176 145.5t220.5 91t248.5 30.5q218 0 351 -77l-25 -127q-1 -2 -2 -8t-2 -9l-2.5 -7.5t-4 -6.5t-6 -4t-8.5 -2q-7 0 -12.5 6t-5.5 14q0 4 2 14t2 15q0 17 -25 39t-67 42.5t-107 35t-135 14.5q-47 0 -96.5 -7t-111.5 -26t-118 -48.5 t-110.5 -80t-94 -115t-63.5 -158t-24 -204.5q0 -155 47 -275t126.5 -191.5t176.5 -107.5t205 -36q162 0 303 63v146q0 122 -1.5 177.5t-12.5 88t-22.5 36t-43.5 3.5h-135v55h477v-55h-82q-27 0 -37 -3.5t-10 -17.5v-364q0 -26 12.5 -39.5t12.5 -22.5q0 -5 -2 -8.5t-6.5 -6.5 l-7.5 -5t-9 -4.5t-8 -3.5q-110 -47 -247.5 -77t-252.5 -30q-193 0 -335.5 85.5t-215 234t-72.5 340.5z" />
<glyph unicode="H" horiz-adv-x="1478" d="M59 1245v55h441v-55h-82q-16 0 -24 -0.5t-15.5 -5.5t-7.5 -14v-480h733v226q0 94 -1.5 142t-8 81t-17 42t-30.5 9h-121v55h440v-55h-82q-16 0 -24 -0.5t-15.5 -5.5t-7.5 -14v-871q0 -141 8.5 -207.5t20.5 -79t39 -12.5h114v-55h-440v55h84q41 0 41 21v602h-733v-324 q0 -141 8.5 -207.5t20 -79t38.5 -12.5h115v-55h-440v55h84q41 0 41 21v895q0 93 -1.5 142t-8.5 81.5t-17.5 41.5t-30.5 9h-121z" />
<glyph unicode="I" horiz-adv-x="645" d="M78 1245v55h440v-55h-82q-16 0 -24 -0.5t-15.5 -5.5t-7.5 -14v-871q0 -141 8.5 -207.5t20.5 -79t39 -12.5h114v-55h-440v55h84q41 0 41 21v895q0 94 -1.5 142t-8 81t-17 42t-30.5 9h-121z" />
<glyph unicode="J" horiz-adv-x="645" d="M-170 -236q0 19 20 19q18 0 23 -19q4 -21 21 -37t40 -25t45.5 -13t43.5 -4q119 0 193.5 92.5t74.5 275.5v918q0 93 -1.5 142t-8.5 81.5t-17.5 41.5t-30.5 9h-120v55h440v-55h-82q-16 0 -24 -0.5t-15.5 -5.5t-7.5 -14v-1174q0 -201 -123.5 -317.5t-337.5 -116.5 q-62 0 -104 12q-5 29 -12.5 61.5t-12 51t-4.5 22.5z" />
<glyph unicode="K" horiz-adv-x="1290" d="M76 1245v55h440v-55h-82q-16 0 -24 -0.5t-15.5 -5.5t-7.5 -14v-82v-565q264 246 404 382.5t187.5 192.5t47.5 78q0 14 -27 14h-153v55h420v-55h-72q-14 0 -20.5 -3.5t-26.5 -22.5l-518 -514q127 -147 249.5 -297t181 -219t99.5 -107q20 -19 39 -23t88 -4v-55h-223 q-14 0 -24.5 5.5t-16 11.5t-21.5 26q-4 5 -173 228.5t-287 353.5l-154 -131v-140q0 -141 8.5 -207.5t20.5 -79t39 -12.5h114v-55h-440v55h84q41 0 41 21v895q0 94 -1.5 142t-8 81t-17 42t-30.5 9h-121z" />
<glyph unicode="L" d="M59 1245v55h441v-55h-82q-16 0 -24 -0.5t-15.5 -5.5t-7.5 -14v-871q0 -74 1 -121t6 -80.5t8.5 -49.5t16 -24.5t21.5 -9.5t31 -1h131q405 0 446 100q8 20 23 20q14 0 14 -14q0 -12 -51 -174h-905v55h84q41 0 41 21v895q0 93 -1.5 142t-8.5 81.5t-17.5 41.5t-30.5 9h-121z " />
<glyph unicode="M" horiz-adv-x="1669" d="M59 1245v55h295l494 -1077l442 1077h266v-55h-81q-16 0 -24 -0.5t-16 -5.5t-8 -14v-871q0 -141 8.5 -207.5t20.5 -79t39 -12.5h115v-55h-441v55h84q41 0 41 21v1046l-4 4l-467 -1112q-4 -12 -10 -12q-7 0 -14 18l-486 1080h-4v-746q0 -141 8.5 -207.5t20.5 -79t39 -12.5 h115v-55h-375v55h84q41 0 41 21v1018q0 151 -90 151h-93z" />
<glyph unicode="N" horiz-adv-x="1478" d="M59 1245v55h260l859 -1069h4v715q0 141 -8.5 207.5t-20.5 79t-39 12.5h-115v55h375v-55h-84q-41 0 -41 -20v-1211q0 -11 -0.5 -16t-3.5 -9.5t-10 -4.5q-6 0 -14 8l-908 1130h-4v-768q0 -141 8.5 -207.5t20.5 -79t39 -12.5h115v-55h-375v55h84q41 0 41 21v1018 q0 151 -90 151h-93z" />
<glyph unicode="O" horiz-adv-x="1517" d="M106 631q0 142 48 270.5t134 225.5t213 154.5t275 57.5q205 0 350.5 -87t216 -236t70.5 -346q0 -142 -48 -270.5t-134 -226t-213 -155t-275 -57.5q-154 0 -276 50t-200.5 139.5t-119.5 211.5t-41 269zM240 670q0 -134 30.5 -244t82 -183.5t121.5 -124t146.5 -73 t159.5 -22.5q66 0 130.5 17t132.5 61t119.5 110t84.5 175t33 245q0 134 -30.5 244t-82.5 183.5t-122 124t-146.5 73t-159.5 22.5q-66 0 -130.5 -17t-132.5 -61t-119 -110t-84 -175t-33 -245z" />
<glyph unicode="P" d="M59 1245v55h541q189 0 296.5 -99.5t107.5 -237.5q0 -90 -38 -162.5t-102.5 -117t-143.5 -68t-165 -23.5q-99 0 -184 26v-264q0 -141 8.5 -207.5t20 -79t38.5 -12.5h115v-55h-440v55h84q41 0 41 21v895q0 93 -1.5 142t-8.5 81.5t-17.5 41.5t-30.5 9h-121zM371 674 q82 -27 172 -27q142 0 234.5 71.5t92.5 209.5q0 31 -6 64t-27 78t-55 79.5t-98.5 59t-148.5 24.5h-89q-75 0 -75 -21v-538z" />
<glyph unicode="Q" horiz-adv-x="1517" d="M106 631q0 142 48 270.5t134 225.5t213 154.5t275 57.5q205 0 350.5 -87t216 -236t70.5 -346q0 -247 -134 -436.5t-364 -251.5q253 -271 431 -271q52 0 127 35l20 -41q-199 -94 -283 -94q-120 0 -436 350h-31q-154 0 -276 50t-200.5 139.5t-119.5 211.5t-41 269zM240 670 q0 -113 22 -208.5t57 -160t82 -115.5t93 -80.5t95.5 -48.5t83.5 -26t62 -8q52 8 99 49l36 -43q90 21 160.5 64.5t116.5 100.5t76.5 129.5t43.5 148t13 159.5q-1 134 -31.5 244t-82.5 183.5t-121.5 124t-146 73t-159.5 22.5q-66 0 -130.5 -17t-132.5 -61t-119 -110t-84 -175 t-33 -245z" />
<glyph unicode="R" horiz-adv-x="1175" d="M59 1245v55h541q189 0 296.5 -99.5t107.5 -237.5q0 -144 -92 -233.5t-240 -117.5q315 -451 418 -534q20 -16 40.5 -19.5t75.5 -3.5v-55h-211q-32 0 -92 78t-364 510h-168v-234q0 -141 8.5 -207.5t20 -79t38.5 -12.5h115v-55h-440v55h84q41 0 41 21v895q0 93 -1.5 142 t-8.5 81.5t-17.5 41.5t-30.5 9h-121zM371 643h114q58 0 110 8t103.5 28.5t88.5 51.5t60 82t23 115q0 31 -6 64t-27 78t-55 79.5t-98.5 59t-148.5 24.5h-89q-75 0 -75 -21v-569z" />
<glyph unicode="S" horiz-adv-x="985" d="M86 199q0 22 20 22q4 0 7 -1t5 -2.5t4 -4.5t3.5 -4.5t2.5 -6t1.5 -6t2 -6.5t1.5 -6q8 -41 46 -72.5t89 -48.5t99.5 -25.5t87.5 -8.5q90 0 166.5 29t127 91t50.5 146q0 64 -23 113.5t-61.5 82t-88.5 58.5t-105 46.5t-110 42.5t-105 51.5t-88.5 67t-61.5 95t-23 131.5 q0 101 65.5 184t169 127.5t218.5 44.5q138 0 221 -39v-139q0 -24 -19 -24q-11 0 -14.5 6.5t-5.5 21.5q-4 29 -34 51.5t-70.5 33.5t-76.5 16.5t-63 5.5q-75 0 -133.5 -24t-92 -61.5t-50.5 -79.5t-17 -83q0 -57 23 -101.5t62 -74.5t89.5 -54.5t106 -45.5t111 -43.5t106 -53 t89.5 -68.5t62 -95.5t23 -129.5q0 -93 -40.5 -169.5t-108.5 -125.5t-153.5 -75.5t-178.5 -26.5q-73 0 -158 15t-149 40q-29 181 -29 183z" />
<glyph unicode="T" horiz-adv-x="1175" d="M39 1126q0 20 55 174h989q56 -157 56 -174q0 -16 -21 -16q-2 0 -4 0.5t-3.5 1t-3 2t-3 2.5t-2.5 3t-2 3.5t-2.5 3.5t-2 3.5t-2 4t-1.5 3.5q-11 24 -37.5 42.5t-70 29t-79.5 17t-93.5 8.5t-82.5 2.5t-74 0.5v-883q0 -141 8.5 -207.5t20.5 -79t39 -12.5h147v-55h-536v55 h147q41 0 41 21v1161q-49 0 -74 -0.5t-82 -2.5t-93 -8.5t-79.5 -17t-70 -29t-37.5 -42.5q-14 -27 -27 -27q-20 0 -20 16z" />
<glyph unicode="U" horiz-adv-x="1402" d="M18 1245v55h441v-55h-82q-16 0 -24 -0.5t-15.5 -5.5t-7.5 -14v-785q0 -73 14.5 -133.5t38 -101t56.5 -71.5t66 -48.5t72 -28.5t69 -14.5t61 -3.5q34 0 66.5 3t77 14.5t82.5 30.5t77 54t66 81t44 115.5t17 154.5v454q0 141 -8.5 207.5t-20.5 79t-39 12.5h-115v55h375v-55 h-84q-41 0 -41 -20v-746q0 -113 -31.5 -203.5t-82.5 -148t-121.5 -96t-143.5 -54.5t-153 -16q-62 0 -121.5 11t-125.5 41.5t-115 78.5t-81 130t-32 188v561q0 93 -1.5 142t-8.5 81.5t-17.5 41.5t-30.5 9h-121z" />
<glyph unicode="V" horiz-adv-x="1251" d="M-16 1245v55h403v-55h-96q-41 0 -41 -12q0 -5 58 -146.5t180.5 -435.5t183.5 -442q368 873 368 999q0 18 -8.5 26t-19 9.5t-33.5 1.5h-111v55h387v-55h-94q-8 0 -13 -4t-9 -18q-11 -32 -72.5 -190t-183.5 -467.5t-205 -522.5q-3 -7 -8 -20q-8 -20 -11.5 -28.5t-8.5 -18 t-8.5 -12.5t-8.5 -3q-12 0 -21 29q-10 39 -45 132t-96.5 242.5t-108.5 262.5t-127 303t-106 252q-19 45 -36 54t-66 9h-43z" />
<glyph unicode="W" horiz-adv-x="1933" d="M-10 1245v55h413v-55h-106q-41 0 -41 -12q0 -9 57.5 -150.5t173 -419t179.5 -432.5l288 775l-71 176q-19 45 -36 54t-67 9h-69v55h430v-55h-97q-40 0 -40 -12q0 -6 58.5 -155t162 -413t174.5 -448q225 610 282.5 776.5t57.5 214.5q0 18 -9 26t-19.5 9.5t-33.5 1.5h-110 v55h362v-55h-74q-6 0 -8.5 -0.5t-6 -5.5t-7.5 -16l-440 -1207q-19 -55 -31 -55q-11 0 -21 25q-3 8 -14.5 41.5t-33 92t-57 153t-101.5 263t-152 382.5l-326 -902q-11 -33 -17 -44t-13 -11q-11 0 -21 25q-394 1044 -467 1196q-15 31 -27.5 44.5t-22 16t-32.5 2.5h-67z" />
<glyph unicode="X" horiz-adv-x="1251" d="M37 0v55h45q27 0 37.5 1.5t21.5 10t21 27.5q169 319 401 590q-38 56 -100.5 150t-98 146.5t-77.5 112.5t-68 92t-41 42q-20 13 -37 15.5t-84 2.5v55h428v-55h-131q-12 0 -12 -8q0 -3 3.5 -10t12 -20.5t18.5 -29t27.5 -40.5t34 -49t42.5 -61.5t50 -71t59 -83.5t66 -94 q31 38 69 84t62 75.5t53 64.5t46.5 57.5t37 47.5t30.5 41t20.5 32t13.5 26.5t4 18.5q0 14 -7 17t-38 3h-121v55h375v-55q-71 0 -87 -2t-23 -14t-75 -96t-175 -216t-154 -190l352 -514q60 -89 91.5 -123.5t54.5 -34.5h76v-55h-435v55h107q23 0 33 3t10 14q0 10 -58.5 97.5 t-166.5 243.5t-152 222q-108 -122 -188.5 -248.5t-112 -200.5t-31.5 -102q0 -13 8.5 -20t16.5 -8t24 -1h115v-55h-393z" />
<glyph unicode="Y" horiz-adv-x="1099" d="M-31 1245v55h420v-55h-94q-24 0 -29.5 -1t-5.5 -7q0 -8 55 -104t154 -263.5t137 -234.5q230 432 268 519q21 48 21 63q0 20 -7 24t-24 4h-131v55h367v-55h-70q-20 0 -30.5 -12.5t-28.5 -48.5l-334 -617v-213q0 -141 8.5 -207.5t20.5 -79t39 -12.5h114v-55h-440v55h84 q41 0 41 21v489q-53 88 -140 234.5t-137 229.5t-88 142q-34 53 -49 63.5t-51 10.5h-70z" />
<glyph unicode="Z" horiz-adv-x="1138" d="M49 12q0 6 37 64l776 1157h-110q-52 0 -100.5 -1t-138.5 -7t-156.5 -16.5t-125 -32.5t-73.5 -52q-12 -24 -25 -24q-18 0 -18 18q0 6 49 182h852q22 0 22 -8q0 -7 -14 -28l-793 -1196h222q65 0 113 1t124 4.5t132 12.5t112.5 22.5t91.5 37t45 53.5q2 7 3 9t4 7t6.5 6.5 t9.5 1.5q16 0 16 -16q0 -13 -55 -207h-977q-29 0 -29 12z" />
<glyph unicode="[" horiz-adv-x="681" d="M262 1444h299v-55h-129q-28 0 -36.5 -4.5t-8.5 -26.5v-1208q0 -85 2 -145.5t7 -98t9.5 -59.5t15 -31t17.5 -11t21 -2h102v-55h-280v1321q0 245 -19 375z" />
<glyph unicode="\" horiz-adv-x="569" d="M14 1495h78l461 -1518h-78z" />
<glyph unicode="]" horiz-adv-x="681" d="M121 -197h129q28 0 36.5 4.5t8.5 26.5v1208q0 85 -2 145.5t-7 98t-9.5 59.5t-15 31t-17.5 11t-21 2h-102v55h280v-1321q0 -245 19 -375h-299v55z" />
<glyph unicode="^" d="M113 578l395 761h47l393 -764h-88l-328 642l-329 -639h-90z" />
<glyph unicode="_" horiz-adv-x="1024" d="M0 -154h1024v-102h-1024v102z" />
<glyph unicode="`" horiz-adv-x="530" d="M29 1190q1 2 5.5 9t7.5 11.5t8 11t9 11t9 9t9.5 7t8.5 2.5q27 0 134 -82t138 -118l-26 -37q-205 132 -303 176z" />
<glyph unicode="a" horiz-adv-x="872" d="M68 158q0 30 8.5 58t20.5 51.5t37.5 47.5t47 42t61 40.5t68.5 37.5t81 38t85.5 37t95.5 39v137q0 21 -1 33.5t-8.5 36.5t-22 38t-44.5 25.5t-73 11.5q-53 0 -108 -16t-91 -47q0 -70 -26.5 -124t-71.5 -54q-18 0 -30.5 13.5t-12.5 29.5q0 59 39.5 111.5t99.5 86.5 t127.5 54t126.5 20q45 0 79 -7.5t57 -18t38 -32t23.5 -39t12.5 -51t4.5 -55.5t0.5 -63v-326q0 -35 0.5 -53.5t3 -47t8 -44.5t16 -36t25.5 -32t38 -23t53 -18l-66 -92q-60 0 -120.5 58.5t-69.5 136.5q-65 -74 -160 -134.5t-174 -60.5q-83 0 -130.5 52.5t-47.5 138.5zM195 190 q0 -58 29.5 -91t86.5 -33q75 0 145.5 48t116.5 119v261q-69 -25 -111.5 -42t-99 -46.5t-89 -58t-55.5 -69.5t-23 -88z" />
<glyph unicode="b" d="M8 1348v49q142 9 285 47v-692q113 83 183.5 118t152.5 35q87 0 156 -39.5t109.5 -104.5t61.5 -142t21 -160q0 -133 -50.5 -243.5t-152 -179.5t-237.5 -69q-167 0 -299 109l-41 -101h-35q12 84 12 258v932q0 87 -8 128t-17.5 48t-31.5 7h-109zM293 102q102 -79 223 -79 q110 0 188 56.5t113 145.5t35 201q0 75 -17.5 141.5t-52.5 121t-95 86.5t-138 32q-74 0 -132 -29.5t-124 -89.5v-586z" />
<glyph unicode="c" horiz-adv-x="872" d="M72 422q0 116 40.5 211t105.5 152.5t141 88.5t153 31q67 0 123.5 -21t89 -51.5t50.5 -60t18 -51.5q0 -23 -15 -37t-39 -14q-46 0 -81.5 54.5t-47.5 109.5q-35 22 -98 22q-33 0 -69.5 -8t-82.5 -33t-81.5 -64.5t-61 -110.5t-27.5 -163v-11q0 -171 91 -288 q94 -121 262 -121q154 0 258 101l26 -33q-64 -75 -156.5 -116.5t-191.5 -41.5q-129 0 -222.5 61.5t-139 163t-45.5 230.5z" />
<glyph unicode="d" horiz-adv-x="1099" d="M86 414q0 133 50.5 243.5t152 179t237.5 68.5q135 0 244 -71v331q0 87 -8 128t-17.5 48t-31.5 7h-109v49q142 9 285 47v-1086q0 -82 0.5 -130.5t5 -86.5t8.5 -54t16.5 -26t22.5 -11t33 -1h82v-49q-22 0 -144 -16q-130 -17 -143 -17v154q-114 -84 -184 -119t-152 -35 q-70 0 -128.5 26t-98.5 70t-68 102t-40.5 120.5t-12.5 128.5zM211 446q0 -75 17.5 -141t52.5 -120.5t95 -86.5t138 -32q74 0 132 29.5t124 88.5v586q-103 80 -223 80q-83 0 -148.5 -32.5t-106 -88.5t-61 -128t-20.5 -155z" />
<glyph unicode="e" horiz-adv-x="872" d="M66 410q0 89 24.5 175t70.5 158.5t122 117t170 44.5q62 0 116 -23t95 -65.5t71 -87.5t60 -104q-334 -107 -611 -170q4 -84 23.5 -152.5t58 -125.5t104.5 -88.5t154 -31.5q151 0 262 105l29 -31q-155 -164 -375 -164q-92 0 -165 36.5t-117.5 99.5t-68 141t-23.5 166z M184 508l461 123q-32 87 -91 153t-136 66q-69 0 -124 -54.5t-82.5 -131.5t-27.5 -156z" />
<glyph unicode="f" horiz-adv-x="569" d="M86 823v49h123v258q0 85 22 148.5t52.5 96.5t72 53t71 25t58.5 5q22 0 52.5 -6.5t62 -18.5t53 -33t21.5 -46q0 -18 -15 -28.5t-34 -10.5q-63 0 -131 84q-12 4 -35 4q-58 0 -94.5 -49.5t-36.5 -157.5v-324h166v-49h-166v-465q0 -82 0.5 -130.5t5 -86.5t8.5 -54t16.5 -26 t22.5 -11t33 -1h82v-49h-402v49h76q39 0 39 21v753h-123z" />
<glyph unicode="g" horiz-adv-x="948" d="M66 -279q0 97 60.5 158t166.5 109q-125 38 -125 121q0 10 2.5 20t8.5 22.5t11 22t15 23.5t16 22t19 23.5t18 21t19 21.5t16 18q-158 84 -158 252q0 147 98.5 248.5t243.5 101.5q35 0 109 -16q120 -21 176 -21q47 0 73.5 8t31.5 17t11 17t17 8q16 0 16 -17q0 -16 -10 -41 q-2 -7 -6.5 -21.5t-6 -18.5t-6.5 -12t-11 -10.5t-16.5 -4.5t-25.5 -2q-11 0 -110 12q74 -82 74 -207q0 -140 -100 -233t-242 -93q-41 0 -107 15q-25 -25 -50.5 -65t-25.5 -64t12.5 -38.5t52 -25t97 -15.5t162.5 -11q33 -2 52.5 -3.5t61.5 -9t69 -17.5t62.5 -31t57 -48 t36.5 -69.5t15 -94.5q0 -64 -32 -116.5t-83.5 -86.5t-119 -58t-136.5 -34t-139 -10q-52 0 -99 5t-98.5 20.5t-88 40t-60.5 67.5t-24 100zM164 -256q0 -46 21 -82.5t53.5 -58.5t76.5 -36t85 -19t83 -5q151 0 258 61t107 158q0 79 -63.5 132.5t-196.5 60.5l-172 10 q-96 -8 -174 -69t-78 -152zM254 614q0 -70 23.5 -134t76.5 -109t125 -45q96 0 145.5 70.5t49.5 170.5q0 70 -24.5 132.5t-78 106.5t-125.5 44q-97 0 -144.5 -67.5t-47.5 -168.5z" />
<glyph unicode="h" horiz-adv-x="1099" d="M27 1348v49q140 9 284 47v-703q95 79 176 121.5t172 42.5q70 0 120.5 -22t77 -59.5t38.5 -80t12 -92.5v-293q0 -82 0.5 -130.5t5 -86.5t8.5 -54t16.5 -26t22.5 -11t33 -1h82v-49h-401v49h76q38 0 38 21v534q0 209 -170 209q-85 0 -157.5 -35t-149.5 -100v-320 q0 -82 0.5 -130.5t5 -86.5t8.5 -54t16.5 -26t22.5 -11t33 -1h82v-49h-401v49h76q39 0 39 21v1095q0 66 -3.5 105t-13 55t-17 19.5t-24.5 3.5h-108z" />
<glyph unicode="i" horiz-adv-x="530" d="M39 823v49q4 0 143 17q126 16 142 16v-547q0 -82 0.5 -130.5t5 -86.5t8.5 -54t16.5 -26t22.5 -11t33 -1h82v-49h-402v49h76q39 0 39 21v571q0 66 -3.5 105t-13 55t-17 19t-24.5 3h-108zM176 1204q0 31 22.5 53.5t53.5 22.5t53.5 -22.5t22.5 -53.5q0 -32 -22.5 -55 t-53.5 -23t-53.5 23t-22.5 55z" />
<glyph unicode="j" horiz-adv-x="530" d="M-147 -422q0 20 16 30.5t39 10.5q67 0 123 -74q16 -8 28 -8q32 0 57.5 14t41.5 33.5t27.5 53t17 60t8.5 68t3.5 63t0.5 58.5v754q0 66 -3.5 105t-12.5 55t-16.5 19t-24.5 3h-109v49q5 0 144 17q126 16 141 16v-1057q0 -68 -14.5 -124t-37 -92t-54 -64t-61 -42.5 t-61.5 -23.5t-52.5 -11.5t-37.5 -2.5q-30 0 -64.5 7.5t-66.5 29.5t-32 53zM186 1204q0 31 22.5 53.5t53.5 22.5t53.5 -22.5t22.5 -53.5q0 -32 -22.5 -55t-53.5 -23t-53.5 23t-22.5 55z" />
<glyph unicode="k" d="M43 1348v49q142 9 285 47v-1034q96 62 173.5 121t123.5 102.5t77.5 80.5t43.5 58.5t12 32.5q0 18 -19 18h-139v49h387v-49h-29q-31 0 -47.5 -7t-42.5 -30l-299 -270q150 -192 243 -297t134.5 -137.5t69.5 -32.5h37v-49h-197q-17 0 -66 58.5t-309 387.5l-153 -102 q0 -78 0.5 -124.5t5 -82.5t8.5 -51.5t16.5 -25t22.5 -10.5t33 -1h82v-49h-402v49h76q39 0 39 21v1095q0 87 -8 128t-17.5 48t-31.5 7h-109z" />
<glyph unicode="l" horiz-adv-x="530" d="M39 1348v49q142 9 285 47v-1086q0 -82 0.5 -130.5t5 -86.5t8.5 -54t16.5 -26t22.5 -11t33 -1h82v-49h-402v49h76q39 0 39 21v1095q0 66 -3.5 105t-13 55t-17 19.5t-24.5 3.5h-108z" />
<glyph unicode="m" horiz-adv-x="1630" d="M39 823v49q4 0 143 17q126 16 142 16v-164q21 15 59.5 44.5t62 46t57 36t67 28.5t69.5 9q88 0 149 -46t76 -128q4 3 40.5 31.5t64.5 47t69 43.5t80 38.5t72 13.5q70 0 120.5 -22t77 -59.5t38.5 -80t12 -92.5v-293q0 -82 0.5 -130.5t5 -86.5t8.5 -54t16.5 -26t22.5 -11 t33 -1h82v-49h-402v49h76q39 0 39 21v534q-1 114 -47 162q-45 47 -119 47h-6q-25 0 -47.5 -4t-44.5 -13t-37.5 -16.5t-37.5 -23.5t-32 -23.5t-34.5 -28t-32.5 -26.5v-320q0 -82 0.5 -130.5t5 -86.5t8.5 -54t16.5 -26t22.5 -11t33 -1h82v-49h-402v49h76q39 0 39 21v534 q0 114 -46 162q-45 47 -120 47h-6q-25 0 -47.5 -4t-44.5 -13t-37.5 -16.5t-37.5 -23.5t-32 -23.5t-34.5 -28t-32.5 -26.5v-320q0 -82 0.5 -130.5t5 -86.5t8.5 -54t16.5 -26t22.5 -11t33 -1h82v-49h-402v49h76q39 0 39 21v571q0 66 -3.5 105t-13 55t-17 19t-24.5 3h-108z" />
<glyph unicode="n" horiz-adv-x="1099" d="M27 823v49q4 0 143 17q126 16 141 16v-164q95 79 176 121.5t172 42.5q70 0 120.5 -22t77 -59.5t38.5 -80t12 -92.5v-293q0 -82 0.5 -130.5t5 -86.5t8.5 -54t16.5 -26t22.5 -11t33 -1h82v-49h-401v49h76q38 0 38 21v534q0 209 -170 209q-85 0 -157.5 -35t-149.5 -100v-320 q0 -82 0.5 -130.5t5 -86.5t8.5 -54t16.5 -26t22.5 -11t33 -1h82v-49h-401v49h76q39 0 39 21v571q0 66 -3.5 105t-13 55t-17 19t-24.5 3h-108z" />
<glyph unicode="o" horiz-adv-x="1024" d="M86 408q0 106 31.5 193t80.5 142t110.5 93t119 53.5t109.5 15.5q182 0 291.5 -124t109.5 -316q0 -106 -31.5 -193t-80.5 -142t-110.5 -93t-119 -54t-109.5 -16q-182 0 -291.5 124.5t-109.5 316.5zM215 446q0 -77 18 -148.5t54.5 -133t99 -98.5t143.5 -37q80 0 137.5 35 t87 95t42 125.5t12.5 141.5q0 77 -18 149t-54.5 133.5t-99 98.5t-143.5 37q-80 0 -137.5 -35t-87 -95.5t-42 -125.5t-12.5 -142z" />
<glyph unicode="p" horiz-adv-x="1099" d="M45 823v49q4 0 143 17q126 16 142 16v-153q113 83 183.5 118t152.5 35q87 0 156 -39.5t109.5 -104.5t61.5 -142t21 -160q0 -133 -50.5 -243.5t-152.5 -179.5t-238 -69q-133 0 -243 72v-186q0 -82 0.5 -130.5t5 -86.5t8.5 -54.5t16.5 -26.5t22.5 -11t33 -1h82v-49h-402v49 h76q39 0 39 21v1077q0 66 -3.5 105t-12.5 55t-16.5 19t-24.5 3h-109zM330 102q102 -79 223 -79q110 0 188 56.5t113 145.5t35 201q0 75 -17.5 141.5t-52.5 121t-95 86.5t-138 32q-74 0 -132 -29.5t-124 -89.5v-586z" />
<glyph unicode="q" d="M86 414q0 133 50.5 243.5t152 179t237.5 68.5q168 0 299 -108l41 100h35q-12 -84 -12 -258v-885q0 -66 3.5 -105t12.5 -55t16.5 -19t24.5 -3h109v-49q-142 -9 -285 -47v645q-114 -84 -184 -119t-152 -35q-70 0 -128.5 26t-98.5 70t-68 102t-40.5 120.5t-12.5 128.5z M211 446q0 -75 17.5 -141t52.5 -120.5t95 -86.5t138 -32q74 0 132 29.5t124 88.5v586q-103 80 -223 80q-83 0 -148.5 -32.5t-106 -88.5t-61 -128t-20.5 -155z" />
<glyph unicode="r" horiz-adv-x="720" d="M53 823v49q5 0 144 17q126 16 141 16v-176q117 105 171 140.5t101 35.5q61 0 97 -45q-11 -65 -18.5 -94.5t-12 -36t-12.5 -6.5q-10 0 -17 9.5t-13 21t-29 21t-60 9.5q-50 0 -96 -26t-111 -94v-306q0 -82 0.5 -130.5t5 -86.5t8.5 -54t16.5 -26t22.5 -11t33 -1h82v-49h-402 v49h76q39 0 39 21v571q0 66 -3.5 105t-12.5 55t-16.5 19t-24.5 3h-109z" />
<glyph unicode="s" horiz-adv-x="757" d="M55 182q0 19 23 19q3 0 5.5 -1t4.5 -2.5t3.5 -4t3 -4.5t2.5 -6t1.5 -5.5l2 -6t1.5 -5.5q10 -54 95.5 -92.5t169.5 -38.5q88 0 160.5 50t72.5 138q0 48 -28.5 81t-73.5 50.5t-100 31.5t-110 31t-100 41.5t-73.5 70t-28.5 110.5q0 106 94 186t228 80q137 0 229 -43 q12 -110 12 -139q0 -14 -14 -14q-7 0 -11.5 3.5t-5.5 4.5t-6 10q-23 36 -42 53q-67 58 -189 58q-74 0 -139.5 -43.5t-65.5 -116.5q0 -44 29 -75t75 -48.5t102 -32.5t112 -34.5t102 -46t75 -74t29 -113.5q0 -73 -36 -130.5t-94 -90.5t-124 -49.5t-135 -16.5q-122 0 -229 39 q-27 175 -27 176z" />
<glyph unicode="t" horiz-adv-x="606" d="M63 838q0 7 21 32l166 197h29v-195h223q-3 -22 -8 -33.5t-9.5 -13.5t-13.5 -2h-192v-585q0 -33 2 -56t10 -50.5t23 -44.5t42.5 -28.5t65.5 -11.5q60 0 139 33l19 -41q-49 -29 -119.5 -50.5t-122.5 -21.5q-86 0 -132 51.5t-46 137.5v667h-45q-34 0 -43 2.5t-9 12.5z" />
<glyph unicode="u" horiz-adv-x="1099" d="M27 823v49q4 0 143 17q126 16 141 16v-547q0 -39 0.5 -59.5t2.5 -54t7 -51t13.5 -41.5t22.5 -37t33 -25.5t46.5 -18t61.5 -5.5q73 0 146 37t128 96v442q0 66 -3.5 105t-12.5 55t-16.5 19t-24.5 3h-109v49q5 0 144 17q126 16 141 16v-592q0 -42 1 -62.5t4.5 -53 t12.5 -49.5t24.5 -37t41.5 -32t61 -20l-65 -92q-72 9 -122.5 59t-66.5 119q-92 -85 -170 -131.5t-168 -46.5q-41 0 -74.5 9.5t-58 23t-44 39.5t-31.5 47.5t-21 59.5t-13 63.5t-6 70.5t-2.5 69.5t-0.5 72.5v2v217q0 66 -3.5 105t-13 55t-17 19t-24.5 3h-108z" />
<glyph unicode="v" horiz-adv-x="948" d="M6 823v49h373v-49h-100q-33 0 -33 -12q0 -7 9 -32.5t33 -83.5t50.5 -121t76 -182t95.5 -230q112 236 171.5 400t59.5 229q0 12 -4 19t-13 9.5t-15 3t-19 0.5h-94v49h348v-49h-67q-10 0 -15.5 -1.5t-11.5 -8t-14 -20.5q-94 -196 -344 -811q-10 -21 -23 -21q-5 0 -8 1.5 t-8.5 11.5t-14.5 30q-16 56 -122.5 323t-155.5 371q-35 76 -53.5 100.5t-45.5 24.5h-55z" />
<glyph unicode="w" horiz-adv-x="1441" d="M8 823v49h373v-49h-100q-33 0 -33 -12q0 -17 90 -241q87 -217 156 -392q43 84 76 155.5t76.5 174t60.5 141.5q-27 70 -39.5 101t-26 50t-21.5 21t-28 2h-53v49h368v-49h-106q-33 0 -33 -12q0 -11 35 -101.5t112.5 -282.5t100.5 -249q159 375 195 473t36 140q0 20 -9.5 26 t-33.5 6h-90v49h324v-49h-62q-17 0 -25.5 -8t-29.5 -47q-57 -126 -317 -778q-13 -29 -23 -29q-9 0 -15.5 8t-13.5 29l-219 584l-244 -584q-13 -32 -20 -35q-3 -2 -8 -2q-10 0 -15.5 8t-13.5 31l-270 698q-28 71 -49 98t-50 27h-55z" />
<glyph unicode="x" horiz-adv-x="985" d="M25 0v49h47q24 0 38 10.5t29 38.5q131 191 299 348q-142 189 -205.5 267t-84.5 94t-46 16h-59v49h395v-49h-86q-39 0 -39 -16q0 -8 39 -60.5t100.5 -130.5t69.5 -88q66 60 149 150.5t83 124.5q0 9 -6 14t-12 5.5t-19 0.5h-107v49h336v-49q-45 0 -56.5 -2t-19.5 -8 q-29 -28 -138.5 -142t-180.5 -186q44 -58 100 -132.5t89.5 -118.5t67 -87.5t52 -65t25.5 -24.5q18 -8 96 -8v-49h-389v49h94q25 0 25 10q0 7 -14.5 30.5t-43 62.5t-55.5 76t-66.5 90.5t-62.5 84.5q-50 -36 -149 -163t-99 -170q0 -21 35 -21h111v-49h-342z" />
<glyph unicode="y" horiz-adv-x="948" d="M4 823v49h373v-49h-101q-32 0 -32 -12q0 -7 19 -56t54.5 -133t65.5 -155.5t73.5 -172t57.5 -134.5q234 501 234 631q0 16 -7.5 23t-15.5 8t-27 1h-92v49h342v-49h-69h-13t-8.5 -2t-6.5 -3t-5 -7.5t-5.5 -11.5t-7 -18.5t-10.5 -24.5q-47 -116 -141 -340.5t-232 -534 t-178 -362.5q-105 -27 -211 -27q-10 0 -17 7t-7 18q0 6 6 10t27 14q4 2 21 9.5t25.5 11.5t27.5 15.5t32 23t35 32t40 44t42.5 58t48 75t51.5 94.5t56 116l-291 678q-32 74 -51.5 99.5t-47.5 25.5h-55z" />
<glyph unicode="z" horiz-adv-x="872" d="M33 20q0 8 15.5 27.5t71.5 84.5q50 58 85 99q11 12 84 96t103.5 120t86.5 104.5t93 120.5t63 98h-309q-155 0 -191 -47q-1 -1 -3.5 -5t-4.5 -6l-4.5 -4.5t-6 -4t-7.5 -1.5q-7 0 -13 6t-6 13q0 4 49 151h637q23 0 23 -12q0 -3 -1 -5.5t-3 -6t-4 -6.5t-6 -8t-7 -8.5 t-8.5 -10t-9.5 -10.5l-576 -705q78 3 117 5.5t82.5 3t230.5 2.5q70 1 106.5 6t45.5 10.5t16 17.5q10 17 23 17q16 0 16 -17q0 -19 -59 -145h-682q-47 0 -47 20z" />
<glyph unicode="{" horiz-adv-x="681" d="M141 596q92 30 124 86t32 168v283q0 97 19 160.5t57.5 95.5t83.5 43.5t110 11.5v-25q-92 -25 -128 -89.5t-36 -184.5v-262q0 -129 -32.5 -193t-132.5 -92v-4q100 -28 132.5 -92t32.5 -193v-262q0 -120 36 -184.5t128 -89.5v-25q-65 0 -110 11.5t-83.5 43.5t-57.5 95.5 t-19 160.5v283q0 112 -32 168t-124 86z" />
<glyph unicode="|" horiz-adv-x="454" d="M188 -442v1863h78v-1863h-78z" />
<glyph unicode="}" horiz-adv-x="681" d="M115 -227q92 25 128 89.5t36 184.5v262q0 129 32.5 193t132.5 92v4q-100 28 -132.5 92t-32.5 193v262q0 120 -36 184.5t-128 89.5v25q65 0 110 -11.5t83.5 -43.5t57.5 -95.5t19 -160.5v-283q0 -112 32 -168t124 -86q-92 -30 -124 -86t-32 -168v-283q0 -97 -19 -160.5 t-57.5 -95.5t-83.5 -43.5t-110 -11.5v25z" />
<glyph unicode="~" d="M100 524q9 32 24.5 62t42.5 61.5t71.5 50.5t101.5 19q96 0 215 -76q98 -59 178 -59q58 0 97.5 34t74.5 103l56 -29q-26 -87 -86 -138.5t-152 -51.5t-227 82q-86 53 -160 53q-68 0 -107 -34t-75 -103z" />
<glyph unicode="&#xa1;" horiz-adv-x="569" d="M193 823q0 38 23 60t60 22t60.5 -22t23.5 -60t-23.5 -60t-60.5 -22t-60 22t-23 60zM221 -281q0 35 35 834h53l70 -975h-70q-32 0 -44.5 2t-25 15.5t-15.5 41.5t-3 82z" />
<glyph unicode="&#xa2;" d="M160 633q0 177 96.5 308t265.5 169v229h56v-223q82 0 145.5 -22t95.5 -54.5t47 -60t15 -47.5t-15 -34.5t-37 -14.5q-46 0 -83 54.5t-48 109.5q-34 20 -120 20v-786q29 -5 59 -5q152 0 252 97l26 -33q-62 -70 -151.5 -112t-185.5 -42v-225h-56v225q-174 17 -268 142.5 t-94 304.5zM279 680q0 -135 61.5 -244t181.5 -145v770q-122 -36 -182.5 -140.5t-60.5 -240.5z" />
<glyph unicode="&#xa3;" d="M10 37q69 36 118.5 86.5t75.5 101t39.5 114t16 112.5t0.5 110l-4 129h-166v55h164v129q0 203 106 334t252 131q57 0 116.5 -32t59.5 -86q0 -21 -14.5 -32t-36.5 -11q-40 0 -75.5 31t-51.5 71q-18 6 -37 6q-67 0 -113.5 -60t-64.5 -148t-14 -191l6 -142h188v-55h-186 q6 -117 6 -127q0 -133 -37 -234t-135 -192l4 -4q90 41 181 41t258 -55q127 -43 161 -43q47 0 85 29.5t38 78.5q0 25 -10 38.5t-21.5 16t-21.5 6t-10 11.5t30.5 15.5t49.5 7.5q8 0 22 -10.5t27.5 -37.5t13.5 -61q0 -45 -23 -85.5t-57.5 -67t-72.5 -41.5t-70 -15q-22 0 -52 6 t-71.5 19.5t-64 21.5t-70.5 26t-49 19q-3 1 -25.5 10t-29.5 11.5t-27.5 10t-31.5 10t-28 7t-31 6t-28 1.5q-62 0 -132.5 -33.5t-129.5 -81.5z" />
<glyph unicode="&#xa4;" d="M98 354l138 131q-84 117 -84 240q0 133 84 240l-138 133l58 57l135 -135q115 86 241 86q129 0 240 -86l135 135l58 -57l-138 -133q86 -113 86 -240q0 -118 -86 -240l138 -131l-58 -57l-135 135q-111 -88 -240 -88q-135 0 -241 88l-135 -135zM231 727q0 -124 88.5 -213.5 t212.5 -89.5q123 0 212.5 89.5t89.5 213.5q0 129 -92 214t-210 85q-128 0 -214.5 -88.5t-86.5 -210.5z" />
<glyph unicode="&#xa5;" d="M-6 1245v55h405v-55h-94q-24 0 -29.5 -1t-5.5 -7q0 -5 22.5 -46t64.5 -112t79 -133.5t88.5 -149t71.5 -120.5q220 411 255 496q13 33 13 45q0 20 -6.5 24t-23.5 4h-132v55h367v-55h-70q-20 0 -30.5 -12.5t-28.5 -48.5l-281 -518h314v-56h-346v-164h346v-55h-346 q0 -163 8 -236.5t19.5 -86.5t39.5 -13h115v-55h-426v55h84q41 0 41 21v315h-344v55h344v164h-344v56h309q-269 446 -307 505q-34 53 -49 63.5t-51 10.5h-72z" />
<glyph unicode="&#xa6;" horiz-adv-x="454" d="M188 240h78v-680h-78v680zM188 739v682h78v-682h-78z" />
<glyph unicode="&#xa7;" horiz-adv-x="1024" d="M160 571q0 59 25 107.5t69 82.5t92 56.5t105 38.5v4q-39 15 -69 28.5t-66.5 36t-61 47t-41 59t-16.5 73.5q0 77 53 132.5t124.5 79t147.5 23.5q137 0 217 -61.5t80 -130.5q0 -50 -53 -96h-59q18 30 18 71q0 78 -64.5 120t-146.5 42q-79 0 -142 -39.5t-63 -114.5 q0 -38 23.5 -71.5t67 -60.5t88 -47t102.5 -40q48 -16 78.5 -28.5t72 -36t66 -50t42 -67t17.5 -90.5t-27 -95t-70.5 -78t-91.5 -56t-97 -35v-4q52 -16 92.5 -33t85 -45.5t69.5 -69.5t25 -92q0 -63 -32 -117t-83 -88.5t-112.5 -53.5t-122.5 -19q-75 0 -135 21t-94.5 54.5 t-52 70t-17.5 71.5q0 62 51 96h51q-24 -34 -24 -82q0 -55 36 -96.5t86 -60.5t103 -19q87 0 160 49.5t73 132.5q0 79 -49.5 119.5t-187.5 83.5q-39 12 -65.5 21t-66 24.5t-65.5 30t-56 36.5t-47.5 45.5t-29.5 54.5t-12 66zM272 608q0 -76 49.5 -124t143.5 -76q51 -2 101 10 t92.5 37.5t69 68.5t26.5 97q0 72 -45.5 120.5t-141.5 77.5q-126 0 -210.5 -55t-84.5 -156z" />
<glyph unicode="&#xa8;" horiz-adv-x="530" d="M88 1126q0 29 19.5 49.5t48.5 20.5t48 -20t19 -50q0 -29 -19 -48t-48 -19t-48.5 19t-19.5 48zM309 1126q0 29 19.5 49.5t48.5 20.5t48 -20t19 -50q0 -29 -19 -48t-48 -19t-48.5 19t-19.5 48z" />
<glyph unicode="&#xa9;" horiz-adv-x="1638" d="M121 649q0 141 55 268.5t148 220t222.5 147t272.5 54.5q191 0 352 -92.5t254 -251t93 -346.5t-93 -346t-254 -250t-352 -92q-143 0 -272.5 54.5t-222.5 146.5t-148 219.5t-55 267.5zM205 649q0 -127 49 -242t131.5 -197.5t196 -131.5t237.5 -49q169 0 310.5 82.5 t223 225.5t81.5 312q0 170 -81.5 313t-223 226.5t-310.5 83.5q-165 0 -306.5 -83.5t-224.5 -227t-83 -312.5zM440 647q0 95 38.5 175.5t100 131.5t136 79t149.5 28q147 0 260 -45q-6 -76 -9.5 -93.5t-14.5 -17.5q-9 0 -12.5 5.5t-6.5 21.5q-8 28 -57.5 54t-132.5 26 q-75 0 -135.5 -32t-97 -84t-55.5 -114t-19 -127q0 -84 32.5 -159.5t102 -127t162.5 -51.5q67 0 143 36t86 91q4 21 18 21q15 0 15 -12q0 -5 -1.5 -21.5t-4 -46t-4.5 -57.5q-126 -60 -287 -60q-181 0 -293.5 97.5t-112.5 281.5z" />
<glyph unicode="&#xaa;" horiz-adv-x="665" d="M59 877q0 38 22.5 70t68.5 59t95 48.5t121 50.5q29 11 44 17v70q0 16 -2 27.5t-10 28.5t-29 26.5t-54 9.5q-86 0 -135 -41q0 -39 -19.5 -70.5t-54.5 -31.5q-13 0 -21.5 7.5t-8.5 18.5q0 48 46.5 89t111.5 62t128 21q45 0 75 -9.5t45.5 -21.5t23.5 -38.5t9 -44t1 -54.5 v-198q0 -31 0.5 -46t5.5 -38t15 -35t29 -23.5t48 -17.5l-61 -65q-47 0 -90 37.5t-49 88.5q-39 -45 -102.5 -85.5t-116.5 -40.5q-57 0 -96.5 37.5t-39.5 91.5zM176 905q0 -35 17.5 -53t46.5 -18q53 0 99.5 28t70.5 70v147q-52 -18 -87.5 -33.5t-72 -37t-55.5 -47.5t-19 -56z " />
<glyph unicode="&#xab;" horiz-adv-x="985" d="M129 436q108 73 189.5 176t123.5 222l56 -29q-69 -217 -201 -369q133 -153 201 -368l-56 -29q-42 119 -123.5 221.5t-189.5 175.5zM432 436q108 73 189.5 176t123.5 222l56 -29q-69 -217 -201 -369q133 -153 201 -368l-56 -29q-42 119 -123.5 221.5t-189.5 175.5z" />
<glyph unicode="&#xac;" d="M170 709v77h723v-444h-80v367h-643z" />
<glyph unicode="&#xad;" horiz-adv-x="681" d="M70 375q0 8 67 114h342q39 0 68.5 4.5t44.5 8.5t18 4q4 -4 4 -6t-0.5 -4.5t-2 -6.5t-3 -7.5t-4.5 -9.5t-6 -11t-8.5 -14.5t-10 -17.5t-12 -21t-14.5 -25h-408q-33 0 -50 -7t-19 -7q-6 0 -6 6z" />
<glyph unicode="&#xae;" horiz-adv-x="1638" d="M121 649q0 141 55 268.5t148 220t222.5 147t272.5 54.5q191 0 352 -92.5t254 -251t93 -346.5t-93 -346t-254 -250t-352 -92q-143 0 -272.5 54.5t-222.5 146.5t-148 219.5t-55 267.5zM205 649q0 -127 49 -242t131.5 -197.5t196 -131.5t237.5 -49q169 0 310.5 82.5 t223 225.5t81.5 312q0 170 -81.5 313t-223 226.5t-310.5 83.5q-165 0 -306.5 -83.5t-224.5 -227t-83 -312.5zM508 1010v45h317q123 0 187.5 -61t64.5 -146q0 -75 -44.5 -124t-117.5 -65q156 -257 228 -319h39v-45h-168q-24 0 -99.5 126.5t-117.5 213.5h-70v-135 q0 -116 6.5 -138t36.5 -22h55v-45h-290v45h53q12 0 16 3.5t4 14.5v490q0 80 -4.5 113t-12.5 41t-30 8h-53zM727 680h55q70 0 121 37t51 114q0 23 -9 51.5t-28 58t-55.5 49.5t-83.5 20q-51 0 -51 -21v-309z" />
<glyph unicode="&#xaf;" horiz-adv-x="530" d="M35 1092v82h461v-82h-461z" />
<glyph unicode="&#xb0;" horiz-adv-x="716" d="M106 1094q0 99 74 172t174 73q104 0 179 -72t75 -175q0 -102 -72 -178t-176 -76q-106 0 -180 75t-74 181zM184 1094q0 -75 51 -127t125 -52q71 0 120.5 52t49.5 125q0 70 -52 120t-124 50q-70 0 -120 -49t-50 -119z" />
<glyph unicode="&#xb1;" d="M113 0v78h835v-78h-835zM113 594v78h376v393h80v-393h379v-78h-379v-391h-80v391h-376z" />
<glyph unicode="&#xb2;" horiz-adv-x="696" d="M57 827q0 3 9.5 14t30 33t38 40t49.5 50.5t49 49.5q132 132 174 207t42 157q0 80 -45.5 128t-124.5 48q-111 0 -191 -59l-16 41q45 39 108 62.5t129 23.5q120 0 193 -57.5t73 -159.5q0 -58 -26.5 -119t-70 -114t-81 -89.5t-78.5 -70.5l-131 -107l5 -4q25 6 243 6 q55 0 79 1t48 8t35 22q9 12 16 12q9 0 9 -12q0 -9 -43 -119h-500q-23 0 -23 8z" />
<glyph unicode="&#xb3;" horiz-adv-x="696" d="M51 850l15 39q76 -35 182 -35t180 62.5t74 160.5q0 45 -18 78t-46 50t-54 24.5t-50 7.5h-74v47q76 0 129 42.5t53 111.5q0 56 -39 86t-100 30q-131 0 -207 -67l-22 29q48 48 116.5 77t139.5 29q94 0 160.5 -41t66.5 -119q0 -63 -51.5 -112.5t-108.5 -71.5v-4 q103 -8 167.5 -60t64.5 -139q0 -124 -108.5 -200t-266.5 -76q-118 0 -203 51z" />
<glyph unicode="&#xb4;" horiz-adv-x="530" d="M141 1051q31 36 138.5 118t134.5 82q4 0 8.5 -2.5t9.5 -7t9 -9t9 -11t8 -11t7.5 -11.5t5.5 -9q-98 -44 -303 -176z" />
<glyph unicode="&#xb5;" horiz-adv-x="1089" d="M193 -184v1056h118v-514q0 -39 0.5 -59.5t2.5 -54t7 -51t13.5 -41.5t22.5 -37t33 -25.5t46.5 -18t61.5 -5.5q73 0 146 37t128 96v673h119v-559q0 -42 1 -62.5t4.5 -53t12.5 -49.5t24.5 -37t41.5 -32t61 -20l-65 -92q-72 9 -122.5 59t-66.5 119q-44 -40 -76 -66t-76 -55 t-89 -43t-92 -14q-74 0 -160 58v-160q0 -29 42 -116.5t42 -108.5q0 -35 -19.5 -60.5t-58.5 -25.5q-61 0 -81.5 57t-20.5 205z" />
<glyph unicode="&#xb6;" horiz-adv-x="1024" d="M-27 971q0 61 23 118.5t66.5 105t115.5 76.5t162 29h573v-55h-82q-16 0 -24 -0.5t-15.5 -5.5t-7.5 -14v-1018q0 -141 8.5 -207.5t20.5 -79t39 -12.5h115v-55h-275v1392h-78v-1392h-217v55h84q41 0 41 20v772q-97 -59 -198 -59q-154 0 -252.5 89t-98.5 241zM86 948 q0 -110 68 -178t178 -68q88 0 190 66v477h-157q-131 0 -205 -79t-74 -218z" />
<glyph unicode="&#xb7;" horiz-adv-x="530" d="M182 436q0 38 23.5 60t60.5 22t60.5 -22t23.5 -60t-23.5 -60t-60.5 -22t-60.5 22t-23.5 60z" />
<glyph unicode="&#xb8;" horiz-adv-x="530" d="M213 -268q0 13 10 19.5t23 6.5q44 0 78 -55q15 -6 34 -6q35 0 66 19t31 51q0 47 -119 67q-56 9 -77 19t-21 28q0 31 75 119h56q-6 -9 -21.5 -29.5t-26 -35.5t-10.5 -19q0 -10 16 -17t64 -14q16 -3 34 -7.5t46 -15t46 -29t18 -42.5q0 -43 -34 -73t-75 -42t-80 -12 q-17 0 -37.5 3.5t-43 10.5t-37.5 21t-15 33z" />
<glyph unicode="&#xb9;" horiz-adv-x="696" d="M143 819v45h115q41 0 41 13v378q0 115 -1.5 174.5t-8.5 88.5t-14 33.5t-25 4.5h-107v46q79 0 172 10l93 10v-645q0 -54 6.5 -79.5t14.5 -29.5t28 -4h116v-45h-430z" />
<glyph unicode="&#xba;" horiz-adv-x="716" d="M53 1024q0 67 21.5 122t55.5 90t77.5 59t85.5 34t82 10q136 0 213.5 -78t77.5 -200q0 -66 -21.5 -121t-55.5 -89.5t-78 -58.5t-86.5 -34t-82.5 -10q-134 0 -211.5 77.5t-77.5 198.5zM166 1049q0 -98 52.5 -175t152.5 -77q52 0 89.5 21.5t56.5 58t27.5 75.5t8.5 84 q0 62 -20.5 118t-69.5 96t-117 40q-52 0 -89 -21.5t-56 -58t-27 -76t-8 -85.5z" />
<glyph unicode="&#xbb;" horiz-adv-x="985" d="M184 68q68 215 201 368q-132 152 -201 369l56 29q42 -119 123.5 -222t189.5 -176q-108 -73 -189.5 -175.5t-123.5 -221.5zM487 68q68 215 201 368q-132 152 -201 369l56 29q42 -119 123.5 -222t189.5 -176q-108 -73 -189.5 -175.5t-123.5 -221.5z" />
<glyph unicode="&#xbc;" horiz-adv-x="1587" d="M115 537v45h114q41 0 41 12v379q0 115 -1.5 174.5t-8.5 88.5t-14 33.5t-25 4.5h-106v45q79 0 171 10t93 10v-645q0 -54 6.5 -79t14.5 -29t28 -4h117v-45h-430zM434 -92q25 159 166.5 481.5t302.5 612.5t250 389h78q-105 -118 -251 -382.5t-270.5 -562.5t-166.5 -497z M838 279v26q66 86 200.5 232.5t241.5 250.5h41v-421h41q30 0 52 4.5t30.5 9.5t14.5 9.5t9 4.5q11 0 11 -8q0 -7 -43 -108h-115v-295q-93 -33 -94 -33q-15 0 -15 14q0 17 3.5 86t3.5 103v125h-381zM944 367h275v303q-173 -182 -275 -303z" />
<glyph unicode="&#xbd;" horiz-adv-x="1587" d="M113 537v45h114q41 0 41 12v379q0 115 -1.5 174.5t-8.5 88.5t-14 33.5t-25 4.5h-106v45q79 0 171 10l93 10v-645q0 -54 6.5 -79t14.5 -29t28 -4h117v-45h-430zM434 -92q25 159 166.5 481.5t302.5 612.5t250 389h78q-105 -118 -251 -382.5t-270.5 -562.5t-166.5 -497z M938 8q0 3 9.5 14t30 33t38 40t49.5 50.5t49 49.5q132 132 173.5 207t41.5 157q0 80 -45.5 128t-124.5 48q-110 0 -190 -59l-17 41q45 39 108.5 62.5t129.5 23.5q120 0 193 -57.5t73 -159.5q0 -58 -26.5 -119t-70 -114t-81 -89.5t-78.5 -70.5l-131 -107l4 -4q25 6 244 6 q55 0 79 1t48 8t35 22q9 12 16 12q8 0 8 -12q0 -9 -43 -119h-499q-23 0 -23 8z" />
<glyph unicode="&#xbe;" horiz-adv-x="1587" d="M55 567l15 39q76 -35 182 -35t180 63t74 161q0 45 -18 78t-46 49.5t-54 24t-50 7.5h-74v47q76 0 129 42.5t53 111.5q0 56 -39 86.5t-100 30.5q-130 0 -207 -68l-22 29q48 48 116.5 77t139.5 29q95 0 161 -40.5t66 -118.5q0 -63 -51.5 -113t-108.5 -72v-4 q103 -8 167.5 -59.5t64.5 -138.5q0 -124 -108.5 -200.5t-266.5 -76.5q-118 0 -203 51zM465 -92q25 159 166.5 481.5t302.5 612.5t250 389h78q-106 -118 -252 -382.5t-270.5 -562.5t-166.5 -497zM868 279v26q66 85 200.5 231.5t242.5 251.5h41v-421h41q30 0 52 4.5t30.5 9.5 t14.5 9.5t9 4.5q10 0 10 -8q0 -7 -43 -108h-114v-295q-93 -33 -95 -33q-14 0 -14 14q0 17 3 85.5t3 103.5v125h-381zM975 367h274v303q-165 -173 -274 -303z" />
<glyph unicode="&#xbf;" horiz-adv-x="757" d="M106 -139q0 54 18 105t53 96t65.5 76.5t74.5 70.5q10 9 27.5 24.5t27.5 24.5t21 20t16 20t5 17q0 18 -22 54.5t-46 66.5q-7 8 -16.5 12t-16.5 4.5t-12.5 4.5t-5.5 12q0 6 14 18t68 51q17 12 26 19q78 -83 125 -227q-123 -102 -188.5 -177t-87 -130t-21.5 -123 q0 -121 78 -185.5t201 -64.5q55 0 86.5 10t39 21.5t14.5 21.5t18 10q16 0 16 -16q0 -5 -7.5 -22t-24 -52t-23.5 -51q-81 -33 -158 -33q-152 0 -258.5 86.5t-106.5 235.5zM330 823q0 38 23.5 60t60.5 22t60.5 -22t23.5 -60t-23.5 -60t-60.5 -22t-60.5 22t-23.5 60z" />
<glyph unicode="&#xc0;" horiz-adv-x="1251" d="M-16 0v55q74 0 90 5.5t28 35.5l519 1229q74 23 106 23q12 0 12 -15q0 -10 -17 -24.5t-17 -38.5q0 -57 149 -493.5t215 -592.5q19 -45 29.5 -66.5t30 -42t40.5 -20.5h76v-55h-422v55h103q25 0 32 4t7 17q0 19 -146 422h-481q-123 -304 -123 -392q0 -51 51 -51h133v-55 h-415zM365 565h428l-189 578q-140 -324 -239 -578zM430 1618q1 2 5.5 9t7.5 11.5t8 11t9 11t9 9t9.5 7t8.5 2.5q27 0 134.5 -82t138.5 -118l-27 -37q-205 132 -303 176z" />
<glyph unicode="&#xc1;" horiz-adv-x="1251" d="M-16 0v55q74 0 90 5.5t28 35.5l519 1229q74 23 106 23q12 0 12 -15q0 -10 -17 -24.5t-17 -38.5q0 -57 149 -493.5t215 -592.5q19 -45 29.5 -66.5t30 -42t40.5 -20.5h76v-55h-422v55h103q25 0 32 4t7 17q0 19 -146 422h-481q-123 -304 -123 -392q0 -51 51 -51h133v-55 h-415zM365 565h428l-189 578q-140 -324 -239 -578zM563 1479q31 36 138.5 118t134.5 82q4 0 8.5 -2.5t9.5 -7t9 -9t9 -11t8 -11t7.5 -11.5t5.5 -9q-98 -44 -303 -176z" />
<glyph unicode="&#xc2;" horiz-adv-x="1251" d="M-16 0v55q74 0 90 5.5t28 35.5l519 1229q74 23 106 23q12 0 12 -15q0 -10 -17 -24.5t-17 -38.5q0 -57 149 -493.5t215 -592.5q19 -45 29.5 -66.5t30 -42t40.5 -20.5h76v-55h-422v55h103q25 0 32 4t7 17q0 19 -146 422h-481q-123 -304 -123 -392q0 -51 51 -51h133v-55 h-415zM365 565h428l-189 578q-140 -324 -239 -578zM371 1481q193 80 276 198q82 -117 275 -198q-51 -39 -56 -39q-35 0 -113 43t-106 74q-28 -31 -106 -74t-113 -43q-2 0 -5 1.5t-8 5l-10 7t-15 11t-19 14.5z" />
<glyph unicode="&#xc3;" horiz-adv-x="1251" d="M-16 0v55q74 0 90 5.5t28 35.5l519 1229q74 23 106 23q12 0 12 -15q0 -10 -17 -24.5t-17 -38.5q0 -57 149 -493.5t215 -592.5q19 -45 29.5 -66.5t30 -42t40.5 -20.5h76v-55h-422v55h103q25 0 32 4t7 17q0 19 -146 422h-481q-123 -304 -123 -392q0 -51 51 -51h133v-55 h-415zM365 565h428l-189 578q-140 -324 -239 -578zM403 1503q8 56 41.5 89.5t87.5 33.5q47 0 123 -31q79 -30 113 -30q33 0 52 16.5t34 50.5l35 -12q-8 -62 -40.5 -99.5t-92.5 -37.5q-50 0 -127 30q-95 37 -113 37q-49 0 -78 -57z" />
<glyph unicode="&#xc4;" horiz-adv-x="1251" d="M-16 0v55q74 0 90 5.5t28 35.5l519 1229q74 23 106 23q12 0 12 -15q0 -10 -17 -24.5t-17 -38.5q0 -57 149 -493.5t215 -592.5q19 -45 29.5 -66.5t30 -42t40.5 -20.5h76v-55h-422v55h103q25 0 32 4t7 17q0 19 -146 422h-481q-123 -304 -123 -392q0 -51 51 -51h133v-55 h-415zM365 565h428l-189 578q-140 -324 -239 -578zM469 1554q0 29 19.5 49.5t48.5 20.5t48 -20t19 -50q0 -29 -19 -48t-48 -19t-48.5 19t-19.5 48zM690 1554q0 29 19.5 49.5t48.5 20.5t48 -20t19 -50q0 -29 -19 -48t-48 -19t-48.5 19t-19.5 48z" />
<glyph unicode="&#xc5;" horiz-adv-x="1251" d="M-16 0v55q74 0 90 5.5t28 35.5l519 1229q74 23 106 23q12 0 12 -15q0 -10 -17 -24.5t-17 -38.5q0 -57 149 -493.5t215 -592.5q19 -45 29.5 -66.5t30 -42t40.5 -20.5h76v-55h-422v55h103q25 0 32 4t7 17q0 19 -146 422h-481q-123 -304 -123 -392q0 -51 51 -51h133v-55 h-415zM365 565h428l-189 578q-140 -324 -239 -578zM457 1563q0 75 52.5 127.5t127.5 52.5t127.5 -52.5t52.5 -127.5t-52.5 -128t-127.5 -53t-127.5 53t-52.5 128zM512 1563q0 -53 36 -89t89 -36t89 36t36 89t-36 89t-89 36t-89 -36t-36 -89z" />
<glyph unicode="&#xc6;" horiz-adv-x="1781" d="M-61 0v55h96q17 0 26 21q25 48 62 114.5t89 154t97.5 164t115 189.5t112.5 182.5t119 192.5t106 172h-156v55h1059l-20 -141q-3 -22 -6 -28.5t-13 -6.5q-16 0 -20 25q-3 23 -18 34.5t-44 20.5q-92 29 -303 29h-151q-76 0 -76 -21v-467h194q141 0 209 8.5t82 21t14 38.5 v82h52v-340h-52v76q0 29 -11 37q-22 15 -166 16h-62h-260v-330q0 -74 1 -121t6 -80.5t8.5 -49.5t16 -24.5t21.5 -9.5t31 -1h131q405 0 446 100q8 20 23 20q14 0 14 -14q0 -12 -51 -174h-905v55h84q41 0 41 21v594h-402q-202 -360 -251.5 -457.5t-49.5 -128.5q0 -20 13 -24.5 t42 -4.5h127v-55h-421zM518 731h363v291q0 223 -31 223h-8q-80 -125 -324 -514z" />
<glyph unicode="&#xc7;" horiz-adv-x="1327" d="M106 600q0 162 63 301.5t170.5 234.5t251 149t302.5 54q171 0 336 -65l-10 -121q-2 -25 -6.5 -34t-18.5 -9q-10 0 -12.5 7t-5.5 36q-5 37 -97 78t-213 41q-188 0 -329.5 -83.5t-216 -230t-74.5 -333.5q0 -134 45.5 -246.5t123.5 -188.5t183 -118.5t223 -42.5q84 0 171 23 t153 69.5t74 103.5q5 35 22 35q9 0 13 -3.5t5 -8t1 -12.5q0 -39 -11 -170q-221 -108 -467 -105h-22q-29 -41 -29 -45q0 -10 16 -17t64 -14q16 -3 34 -7.5t46 -15t45.5 -29t17.5 -42.5q0 -43 -33.5 -73t-74.5 -42t-80 -12q-17 0 -37.5 3.5t-43 10.5t-37.5 21t-15 33 q0 13 10 19.5t23 6.5q43 0 77 -55q15 -6 35 -6q35 0 65.5 18.5t30.5 51.5q0 48 -118 67q-57 9 -78 19t-21 28q0 25 48 82q-274 22 -436.5 188.5t-162.5 448.5z" />
<glyph unicode="&#xc8;" horiz-adv-x="1138" d="M59 1245v55h963l-21 -141q0 -2 -1 -7q-4 -25 -11 -27l-6 -1q-16 0 -20 25q-3 23 -18 34.5t-44 20.5q-92 29 -303 29h-152q-75 0 -75 -21v-467h194q141 0 209 8.5t82 21t14 38.5v82h52v-340h-52v76q0 29 -11 37q-22 15 -166 16h-62h-260v-330q0 -74 1 -121t6 -80.5 t8.5 -49.5t16 -24.5t21.5 -9.5t31 -1h131q405 0 446 100q8 20 23 20q14 0 14 -14q0 -12 -51 -174h-905v55h84q41 0 41 21v895q0 93 -1.5 142t-8.5 81.5t-17.5 41.5t-30.5 9h-121zM354 1618l6 8q5 9 7.5 12t8 11t9.5 12l9 9t9.5 7t8.5 2q27 0 134 -82t138 -118l-27 -37 q-205 132 -303 176z" />
<glyph unicode="&#xc9;" horiz-adv-x="1138" d="M59 1245v55h963l-21 -141q0 -2 -1 -7q-4 -25 -11 -27l-6 -1q-16 0 -20 25q-3 23 -18 34.5t-44 20.5q-92 29 -303 29h-152q-75 0 -75 -21v-467h194q141 0 209 8.5t82 21t14 38.5v82h52v-340h-52v76q0 29 -11 37q-22 15 -166 16h-62h-260v-330q0 -74 1 -121t6 -80.5 t8.5 -49.5t16 -24.5t21.5 -9.5t31 -1h131q405 0 446 100q8 20 23 20q14 0 14 -14q0 -12 -51 -174h-905v55h84q41 0 41 21v895q0 93 -1.5 142t-8.5 81.5t-17.5 41.5t-30.5 9h-121zM467 1479q31 36 138 118t134 82q4 0 8.5 -2t9.5 -7l9 -9t9.5 -12t8 -11t8.5 -12l5 -8 q-98 -44 -303 -176z" />
<glyph unicode="&#xca;" horiz-adv-x="1138" d="M59 1245v55h963l-21 -141q0 -2 -1 -7q-4 -25 -11 -27l-6 -1q-16 0 -20 25q-3 23 -18 34.5t-44 20.5q-92 29 -303 29h-152q-75 0 -75 -21v-467h194q141 0 209 8.5t82 21t14 38.5v82h52v-340h-52v76q0 29 -11 37q-22 15 -166 16h-62h-260v-330q0 -74 1 -121t6 -80.5 t8.5 -49.5t16 -24.5t21.5 -9.5t31 -1h131q405 0 446 100q8 20 23 20q14 0 14 -14q0 -12 -51 -174h-905v55h84q41 0 41 21v895q0 93 -1.5 142t-8.5 81.5t-17.5 41.5t-30.5 9h-121zM315 1481q194 80 277 198q82 -117 274 -198q-8 -7 -18 -14.5t-14.5 -11t-9.5 -7t-8 -5 t-5 -1.5q-35 0 -113 43t-106 74q-28 -31 -106 -74t-113 -43q-5 0 -58 39z" />
<glyph unicode="&#xcb;" horiz-adv-x="1138" d="M59 1245v55h963l-21 -141q0 -2 -1 -7q-4 -25 -11 -27l-6 -1q-16 0 -20 25q-3 23 -18 34.5t-44 20.5q-92 29 -303 29h-152q-75 0 -75 -21v-467h194q141 0 209 8.5t82 21t14 38.5v82h52v-340h-52v76q0 29 -11 37q-22 15 -166 16h-62h-260v-330q0 -74 1 -121t6 -80.5 t8.5 -49.5t16 -24.5t21.5 -9.5t31 -1h131q405 0 446 100q8 20 23 20q14 0 14 -14q0 -12 -51 -174h-905v55h84q41 0 41 21v895q0 93 -1.5 142t-8.5 81.5t-17.5 41.5t-30.5 9h-121zM393 1554q0 29 19.5 49.5t48.5 20.5t48 -20t19 -50q0 -29 -19 -48t-48 -19t-48.5 19t-19.5 48 zM614 1554q0 29 19.5 49.5t48.5 20.5t48.5 -20.5t19.5 -49.5t-19.5 -48t-48.5 -19t-48.5 19t-19.5 48z" />
<glyph unicode="&#xcc;" horiz-adv-x="645" d="M25 1618q1 2 5.5 9t7.5 11.5t8 11t9 11t9 9t9.5 7t8.5 2.5q27 0 134 -82t138 -118l-26 -37q-205 132 -303 176zM78 1245v55h440v-55h-82q-16 0 -24 -0.5t-15.5 -5.5t-7.5 -14v-871q0 -141 8.5 -207.5t20.5 -79t39 -12.5h114v-55h-440v55h84q41 0 41 21v895q0 94 -1.5 142 t-8 81t-17 42t-30.5 9h-121z" />
<glyph unicode="&#xcd;" horiz-adv-x="645" d="M78 1245v55h440v-55h-82q-16 0 -24 -0.5t-15.5 -5.5t-7.5 -14v-871q0 -141 8.5 -207.5t20.5 -79t39 -12.5h114v-55h-440v55h84q41 0 41 21v895q0 94 -1.5 142t-8 81t-17 42t-30.5 9h-121zM219 1479q31 36 138.5 118t134.5 82q4 0 8.5 -2.5t9.5 -7t9 -9t9 -11t8 -11 t7.5 -11.5t5.5 -9q-98 -44 -303 -176z" />
<glyph unicode="&#xce;" horiz-adv-x="645" d="M27 1481q193 80 276 198q82 -117 275 -198q-51 -39 -56 -39q-35 0 -113 43t-106 74q-28 -31 -106 -74t-113 -43q-2 0 -5 1.5t-8 5l-10 7t-15 11t-19 14.5zM78 1245v55h440v-55h-82q-16 0 -24 -0.5t-15.5 -5.5t-7.5 -14v-871q0 -141 8.5 -207.5t20.5 -79t39 -12.5h114v-55 h-440v55h84q41 0 41 21v895q0 94 -1.5 142t-8 81t-17 42t-30.5 9h-121z" />
<glyph unicode="&#xcf;" horiz-adv-x="645" d="M78 1245v55h440v-55h-82q-16 0 -24 -0.5t-15.5 -5.5t-7.5 -14v-871q0 -141 8.5 -207.5t20.5 -79t39 -12.5h114v-55h-440v55h84q41 0 41 21v895q0 94 -1.5 142t-8 81t-17 42t-30.5 9h-121zM125 1554q0 29 19.5 49.5t48.5 20.5t48 -20t19 -50q0 -29 -19 -48t-48 -19 t-48.5 19t-19.5 48zM346 1554q0 29 19.5 49.5t48.5 20.5t48 -20t19 -50q0 -29 -19 -48t-48 -19t-48.5 19t-19.5 48z" />
<glyph unicode="&#xd0;" horiz-adv-x="1402" d="M35 678v67h203v226q0 93 -1.5 142t-8.5 81.5t-17.5 41.5t-30.5 9h-121v55h619q152 0 274.5 -51.5t199 -139.5t117 -200t40.5 -237q0 -59 -10 -120.5t-33 -128t-58 -127t-89.5 -115t-122 -94.5t-160.5 -63.5t-201 -23.5h-522v55h84q41 0 41 21v602h-203zM371 354 q0 -74 1 -121t6 -80.5t8.5 -49.5t16 -24.5t21.5 -9.5t31 -1h168q69 0 130.5 9.5t125.5 32t114.5 64.5t91 101.5t62.5 148.5t22 201t-25.5 205.5t-70.5 158.5t-101.5 113.5t-123 76t-130.5 41t-128 13.5h-144q-75 0 -75 -21v-467h331v-67h-331v-324z" />
<glyph unicode="&#xd1;" horiz-adv-x="1478" d="M59 1245v55h260l859 -1069h4v715q0 141 -8.5 207.5t-20.5 79t-39 12.5h-115v55h375v-55h-84q-41 0 -41 -20v-1211q0 -11 -0.5 -16t-3.5 -9.5t-10 -4.5q-6 0 -14 8l-908 1130h-4v-768q0 -141 8.5 -207.5t20.5 -79t39 -12.5h115v-55h-375v55h84q41 0 41 21v1018 q0 151 -90 151h-93zM477 1503q8 56 41.5 89.5t87.5 33.5q47 0 123 -31q79 -30 113 -30q33 0 52 16.5t34 50.5l35 -12q-8 -62 -41 -99.5t-93 -37.5q-50 0 -127 30q-11 4 -31.5 12.5t-28 11l-19.5 6.5t-19 5.5t-14 1.5q-49 0 -78 -57z" />
<glyph unicode="&#xd2;" horiz-adv-x="1517" d="M106 631q0 142 48 270.5t134 225.5t213 154.5t275 57.5q205 0 350.5 -87t216 -236t70.5 -346q0 -142 -48 -270.5t-134 -226t-213 -155t-275 -57.5q-154 0 -276 50t-200.5 139.5t-119.5 211.5t-41 269zM240 670q0 -134 30.5 -244t82 -183.5t121.5 -124t146.5 -73 t159.5 -22.5q66 0 130.5 17t132.5 61t119.5 110t84.5 175t33 245q0 134 -30.5 244t-82.5 183.5t-122 124t-146.5 73t-159.5 22.5q-66 0 -130.5 -17t-132.5 -61t-119 -110t-84 -175t-33 -245zM522 1618l6 8q5 9 7.5 12t8 11t9.5 12l9 9t9.5 7t8.5 2q27 0 134 -82t138 -118 l-27 -37q-205 132 -303 176z" />
<glyph unicode="&#xd3;" horiz-adv-x="1517" d="M106 631q0 142 48 270.5t134 225.5t213 154.5t275 57.5q205 0 350.5 -87t216 -236t70.5 -346q0 -142 -48 -270.5t-134 -226t-213 -155t-275 -57.5q-154 0 -276 50t-200.5 139.5t-119.5 211.5t-41 269zM240 670q0 -134 30.5 -244t82 -183.5t121.5 -124t146.5 -73 t159.5 -22.5q66 0 130.5 17t132.5 61t119.5 110t84.5 175t33 245q0 134 -30.5 244t-82.5 183.5t-122 124t-146.5 73t-159.5 22.5q-66 0 -130.5 -17t-132.5 -61t-119 -110t-84 -175t-33 -245zM655 1479q31 36 138.5 118t134.5 82q4 0 8.5 -2.5t9.5 -7t9 -9t9 -11t8 -11 t7.5 -11.5t5.5 -9q-98 -44 -303 -176z" />
<glyph unicode="&#xd4;" horiz-adv-x="1517" d="M106 631q0 142 48 270.5t134 225.5t213 154.5t275 57.5q205 0 350.5 -87t216 -236t70.5 -346q0 -142 -48 -270.5t-134 -226t-213 -155t-275 -57.5q-154 0 -276 50t-200.5 139.5t-119.5 211.5t-41 269zM240 670q0 -134 30.5 -244t82 -183.5t121.5 -124t146.5 -73 t159.5 -22.5q66 0 130.5 17t132.5 61t119.5 110t84.5 175t33 245q0 134 -30.5 244t-82.5 183.5t-122 124t-146.5 73t-159.5 22.5q-66 0 -130.5 -17t-132.5 -61t-119 -110t-84 -175t-33 -245zM483 1481q194 80 277 198q82 -117 274 -198q-8 -7 -18 -14.5t-14.5 -11t-9.5 -7 t-8 -5t-5 -1.5q-35 0 -113 43t-106 74q-28 -31 -106 -74t-113 -43q-5 0 -58 39z" />
<glyph unicode="&#xd5;" horiz-adv-x="1517" d="M106 631q0 142 48 270.5t134 225.5t213 154.5t275 57.5q205 0 350.5 -87t216 -236t70.5 -346q0 -142 -48 -270.5t-134 -226t-213 -155t-275 -57.5q-154 0 -276 50t-200.5 139.5t-119.5 211.5t-41 269zM240 670q0 -134 30.5 -244t82 -183.5t121.5 -124t146.5 -73 t159.5 -22.5q66 0 130.5 17t132.5 61t119.5 110t84.5 175t33 245q0 134 -30.5 244t-82.5 183.5t-122 124t-146.5 73t-159.5 22.5q-66 0 -130.5 -17t-132.5 -61t-119 -110t-84 -175t-33 -245zM516 1503q8 56 41.5 89.5t87.5 33.5q47 0 123 -31q79 -30 113 -30q33 0 52 16.5 t34 50.5l34 -12q-8 -62 -40.5 -99.5t-92.5 -37.5q-50 0 -127 30q-11 4 -31.5 12.5t-28 11l-19.5 6.5t-19 5.5t-14 1.5q-49 0 -78 -57z" />
<glyph unicode="&#xd6;" horiz-adv-x="1517" d="M106 631q0 142 48 270.5t134 225.5t213 154.5t275 57.5q205 0 350.5 -87t216 -236t70.5 -346q0 -142 -48 -270.5t-134 -226t-213 -155t-275 -57.5q-154 0 -276 50t-200.5 139.5t-119.5 211.5t-41 269zM240 670q0 -134 30.5 -244t82 -183.5t121.5 -124t146.5 -73 t159.5 -22.5q66 0 130.5 17t132.5 61t119.5 110t84.5 175t33 245q0 134 -30.5 244t-82.5 183.5t-122 124t-146.5 73t-159.5 22.5q-66 0 -130.5 -17t-132.5 -61t-119 -110t-84 -175t-33 -245zM582 1554q0 30 19 50t48 20t48.5 -20.5t19.5 -49.5t-19.5 -48t-48.5 -19t-48 19 t-19 48zM803 1554q0 30 19 50t48 20t48.5 -20.5t19.5 -49.5t-19.5 -48t-48.5 -19t-48 19t-19 48z" />
<glyph unicode="&#xd7;" d="M127 217l350 348l-350 348l59 56l346 -346l347 346l55 -56l-346 -346l348 -346l-57 -57l-349 346l-350 -348z" />
<glyph unicode="&#xd8;" horiz-adv-x="1517" d="M106 631q0 142 48 270.5t134 225.5t213 154.5t275 57.5q165 0 295 -59l88 164h68l-103 -191q141 -81 215 -232.5t74 -350.5q0 -142 -48 -270.5t-134 -226t-213 -155t-275 -57.5q-166 0 -292 57l-89 -161h-63l102 188q-144 81 -219.5 233t-75.5 353zM240 670 q0 -187 56.5 -321.5t154.5 -211.5l573 1057q-122 84 -285 84q-66 0 -130.5 -17t-132.5 -61t-119 -110t-84 -175t-33 -245zM498 102q121 -79 282 -79q66 0 130.5 17t132.5 61t119.5 110t84.5 175t33 245q0 358 -207 530z" />
<glyph unicode="&#xd9;" horiz-adv-x="1402" d="M18 1245v55h441v-55h-82q-16 0 -24 -0.5t-15.5 -5.5t-7.5 -14v-785q0 -73 14.5 -133.5t38 -101t56.5 -71.5t66 -48.5t72 -28.5t69 -14.5t61 -3.5q34 0 66.5 3t77 14.5t82.5 30.5t77 54t66 81t44 115.5t17 154.5v454q0 141 -8.5 207.5t-20.5 79t-39 12.5h-115v55h375v-55 h-84q-41 0 -41 -20v-746q0 -113 -31.5 -203.5t-82.5 -148t-121.5 -96t-143.5 -54.5t-153 -16q-62 0 -121.5 11t-125.5 41.5t-115 78.5t-81 130t-32 188v561q0 93 -1.5 142t-8.5 81.5t-17.5 41.5t-30.5 9h-121zM444 1618l6 8q5 9 7.5 12t8 11t9.5 12l9 9t9.5 7t8.5 2 q27 0 134 -82t138 -118l-26 -37q-202 130 -304 176z" />
<glyph unicode="&#xda;" horiz-adv-x="1402" d="M18 1245v55h441v-55h-82q-16 0 -24 -0.5t-15.5 -5.5t-7.5 -14v-785q0 -73 14.5 -133.5t38 -101t56.5 -71.5t66 -48.5t72 -28.5t69 -14.5t61 -3.5q34 0 66.5 3t77 14.5t82.5 30.5t77 54t66 81t44 115.5t17 154.5v454q0 141 -8.5 207.5t-20.5 79t-39 12.5h-115v55h375v-55 h-84q-41 0 -41 -20v-746q0 -113 -31.5 -203.5t-82.5 -148t-121.5 -96t-143.5 -54.5t-153 -16q-62 0 -121.5 11t-125.5 41.5t-115 78.5t-81 130t-32 188v561q0 93 -1.5 142t-8.5 81.5t-17.5 41.5t-30.5 9h-121zM598 1479q31 36 138 118t134 82q4 0 8.5 -2t9.5 -7l9 -9 t9.5 -12t8 -11t7.5 -12l6 -8q-98 -44 -303 -176z" />
<glyph unicode="&#xdb;" horiz-adv-x="1402" d="M18 1245v55h441v-55h-82q-16 0 -24 -0.5t-15.5 -5.5t-7.5 -14v-785q0 -73 14.5 -133.5t38 -101t56.5 -71.5t66 -48.5t72 -28.5t69 -14.5t61 -3.5q34 0 66.5 3t77 14.5t82.5 30.5t77 54t66 81t44 115.5t17 154.5v454q0 141 -8.5 207.5t-20.5 79t-39 12.5h-115v55h375v-55 h-84q-41 0 -41 -20v-746q0 -113 -31.5 -203.5t-82.5 -148t-121.5 -96t-143.5 -54.5t-153 -16q-62 0 -121.5 11t-125.5 41.5t-115 78.5t-81 130t-32 188v561q0 93 -1.5 142t-8.5 81.5t-17.5 41.5t-30.5 9h-121zM426 1481q193 80 276 198q82 -117 275 -198q-8 -7 -18 -14.5 t-14.5 -11t-9.5 -7t-8 -5t-5 -1.5q-35 0 -113.5 43t-106.5 74q-28 -31 -106 -74t-113 -43q-2 0 -5 1.5t-8 5l-10 7t-15 11t-19 14.5z" />
<glyph unicode="&#xdc;" horiz-adv-x="1402" d="M18 1245v55h441v-55h-82q-16 0 -24 -0.5t-15.5 -5.5t-7.5 -14v-785q0 -73 14.5 -133.5t38 -101t56.5 -71.5t66 -48.5t72 -28.5t69 -14.5t61 -3.5q34 0 66.5 3t77 14.5t82.5 30.5t77 54t66 81t44 115.5t17 154.5v454q0 141 -8.5 207.5t-20.5 79t-39 12.5h-115v55h375v-55 h-84q-41 0 -41 -20v-746q0 -113 -31.5 -203.5t-82.5 -148t-121.5 -96t-143.5 -54.5t-153 -16q-62 0 -121.5 11t-125.5 41.5t-115 78.5t-81 130t-32 188v561q0 93 -1.5 142t-8.5 81.5t-17.5 41.5t-30.5 9h-121zM545 1554q0 30 19 50t48 20t48.5 -20.5t19.5 -49.5t-19.5 -48 t-48.5 -19t-48 19t-19 48zM766 1554q0 29 19.5 49.5t48.5 20.5t48 -20t19 -50q0 -29 -19 -48t-48 -19t-48.5 19t-19.5 48z" />
<glyph unicode="&#xdd;" horiz-adv-x="1099" d="M-31 1245v55h420v-55h-94q-24 0 -29.5 -1t-5.5 -7q0 -8 55 -104t154 -263.5t137 -234.5q230 432 268 519q21 48 21 63q0 20 -7 24t-24 4h-131v55h367v-55h-70q-20 0 -30.5 -12.5t-28.5 -48.5l-334 -617v-213q0 -141 8.5 -207.5t20.5 -79t39 -12.5h114v-55h-440v55h84 q41 0 41 21v489q-53 88 -140 234.5t-137 229.5t-88 142q-34 53 -49 63.5t-51 10.5h-70zM508 1479q31 36 138 118t134 82q4 0 8.5 -2t9.5 -7l9 -9t9.5 -12t8 -11t7.5 -12l6 -8q-98 -44 -303 -176z" />
<glyph unicode="&#xde;" d="M59 1245v55h441v-55h-82q-16 0 -24 -0.5t-15.5 -5.5t-7.5 -14v-129h229q189 0 296.5 -100t107.5 -238q0 -90 -38 -162.5t-102.5 -117t-143.5 -68t-165 -23.5q-95 0 -184 27v-60q0 -141 8.5 -207.5t20 -79t38.5 -12.5h115v-55h-440v55h84q41 0 41 21v895q0 93 -1.5 142 t-8.5 81.5t-17.5 41.5t-30.5 9h-121zM371 469q82 -27 172 -27q142 0 234.5 71.5t92.5 209.5q0 31 -6 64t-27 78t-55 79.5t-98.5 59t-148.5 24.5h-89q-19 0 -29 -0.5t-22.5 -2t-18 -6t-5.5 -11.5v-539z" />
<glyph unicode="&#xdf;" horiz-adv-x="1140" d="M86 823v49h123v183q0 74 17 135.5t47 104.5t67.5 75.5t81 51t85.5 27.5t83 9q151 0 254.5 -109.5t103.5 -261.5q-52 -7 -92.5 -16t-86.5 -27.5t-76.5 -43.5t-51 -66.5t-20.5 -93.5q0 -58 25.5 -104.5t66 -78.5t90 -60.5t99 -57.5t90 -62t66 -82.5t25.5 -111.5 q0 -135 -99 -225.5t-232 -90.5q-45 0 -98.5 14.5t-98.5 50t-45 81.5q0 20 13 31.5t32 11.5q45 0 76.5 -32t62.5 -89q30 -12 62 -12q90 0 155.5 60t65.5 150q0 49 -25 90t-64.5 70t-87.5 56.5t-95.5 58t-87 66t-64.5 88t-25 116.5q0 127 83 218.5t210 125.5q0 74 -21.5 131 t-58.5 90t-81.5 49.5t-94.5 16.5q-108 0 -172.5 -71t-64.5 -193v-787q0 -82 0.5 -130.5t5 -86.5t8.5 -54t16.5 -26t22.5 -11t33 -1h82v-49h-402v49h76q39 0 39 21v753h-123z" />
<glyph unicode="&#xe0;" horiz-adv-x="872" d="M68 158q0 30 8.5 58t20.5 51.5t37.5 47.5t47 42t61 40.5t68.5 37.5t81 38t85.5 37t95.5 39v137q0 21 -1 33.5t-8.5 36.5t-22 38t-44.5 25.5t-73 11.5q-53 0 -108 -16t-91 -47q0 -70 -26.5 -124t-71.5 -54q-18 0 -30.5 13.5t-12.5 29.5q0 59 39.5 111.5t99.5 86.5 t127.5 54t126.5 20q45 0 79 -7.5t57 -18t38 -32t23.5 -39t12.5 -51t4.5 -55.5t0.5 -63v-326q0 -35 0.5 -53.5t3 -47t8 -44.5t16 -36t25.5 -32t38 -23t53 -18l-66 -92q-60 0 -120.5 58.5t-69.5 136.5q-65 -74 -160 -134.5t-174 -60.5q-83 0 -130.5 52.5t-47.5 138.5zM195 190 q0 -58 29.5 -91t86.5 -33q75 0 145.5 48t116.5 119v261q-69 -25 -111.5 -42t-99 -46.5t-89 -58t-55.5 -69.5t-23 -88zM201 1190q1 2 5.5 9t7.5 11.5t8 11t9 11t9 9t9.5 7t8.5 2.5q27 0 134 -82t138 -118l-26 -37q-205 132 -303 176z" />
<glyph unicode="&#xe1;" horiz-adv-x="872" d="M68 158q0 30 8.5 58t20.5 51.5t37.5 47.5t47 42t61 40.5t68.5 37.5t81 38t85.5 37t95.5 39v137q0 21 -1 33.5t-8.5 36.5t-22 38t-44.5 25.5t-73 11.5q-53 0 -108 -16t-91 -47q0 -70 -26.5 -124t-71.5 -54q-18 0 -30.5 13.5t-12.5 29.5q0 59 39.5 111.5t99.5 86.5 t127.5 54t126.5 20q45 0 79 -7.5t57 -18t38 -32t23.5 -39t12.5 -51t4.5 -55.5t0.5 -63v-326q0 -35 0.5 -53.5t3 -47t8 -44.5t16 -36t25.5 -32t38 -23t53 -18l-66 -92q-60 0 -120.5 58.5t-69.5 136.5q-65 -74 -160 -134.5t-174 -60.5q-83 0 -130.5 52.5t-47.5 138.5zM195 190 q0 -58 29.5 -91t86.5 -33q75 0 145.5 48t116.5 119v261q-69 -25 -111.5 -42t-99 -46.5t-89 -58t-55.5 -69.5t-23 -88zM313 1051q31 36 138.5 118t134.5 82q4 0 8.5 -2.5t9.5 -7t9 -9t9 -11t8 -11t7.5 -11.5t5.5 -9q-98 -44 -303 -176z" />
<glyph unicode="&#xe2;" horiz-adv-x="872" d="M68 158q0 30 8.5 58t20.5 51.5t37.5 47.5t47 42t61 40.5t68.5 37.5t81 38t85.5 37t95.5 39v137q0 21 -1 33.5t-8.5 36.5t-22 38t-44.5 25.5t-73 11.5q-53 0 -108 -16t-91 -47q0 -70 -26.5 -124t-71.5 -54q-18 0 -30.5 13.5t-12.5 29.5q0 59 39.5 111.5t99.5 86.5 t127.5 54t126.5 20q45 0 79 -7.5t57 -18t38 -32t23.5 -39t12.5 -51t4.5 -55.5t0.5 -63v-326q0 -35 0.5 -53.5t3 -47t8 -44.5t16 -36t25.5 -32t38 -23t53 -18l-66 -92q-60 0 -120.5 58.5t-69.5 136.5q-65 -74 -160 -134.5t-174 -60.5q-83 0 -130.5 52.5t-47.5 138.5z M162 1053q193 80 276 198q82 -117 275 -198q-51 -39 -56 -39q-35 0 -113 42.5t-106 73.5q-28 -31 -106 -73.5t-113 -42.5q-2 0 -5 1.5t-8 5l-10 7t-15 11t-19 14.5zM195 190q0 -58 29.5 -91t86.5 -33q75 0 145.5 48t116.5 119v261q-69 -25 -111.5 -42t-99 -46.5t-89 -58 t-55.5 -69.5t-23 -88z" />
<glyph unicode="&#xe3;" horiz-adv-x="872" d="M68 158q0 30 8.5 58t20.5 51.5t37.5 47.5t47 42t61 40.5t68.5 37.5t81 38t85.5 37t95.5 39v137q0 21 -1 33.5t-8.5 36.5t-22 38t-44.5 25.5t-73 11.5q-53 0 -108 -16t-91 -47q0 -70 -26.5 -124t-71.5 -54q-18 0 -30.5 13.5t-12.5 29.5q0 59 39.5 111.5t99.5 86.5 t127.5 54t126.5 20q45 0 79 -7.5t57 -18t38 -32t23.5 -39t12.5 -51t4.5 -55.5t0.5 -63v-326q0 -35 0.5 -53.5t3 -47t8 -44.5t16 -36t25.5 -32t38 -23t53 -18l-66 -92q-60 0 -120.5 58.5t-69.5 136.5q-65 -74 -160 -134.5t-174 -60.5q-83 0 -130.5 52.5t-47.5 138.5zM195 190 q0 -58 29.5 -91t86.5 -33q75 0 145.5 48t116.5 119v261q-69 -25 -111.5 -42t-99 -46.5t-89 -58t-55.5 -69.5t-23 -88zM195 1075q8 56 41.5 89.5t87.5 33.5q46 0 122 -31q79 -30 113 -30q33 0 52 16.5t34 50.5l35 -12q-8 -62 -40.5 -99.5t-92.5 -37.5q-50 0 -127 30 q-95 37 -113 37q-49 0 -78 -57z" />
<glyph unicode="&#xe4;" horiz-adv-x="872" d="M68 158q0 30 8.5 58t20.5 51.5t37.5 47.5t47 42t61 40.5t68.5 37.5t81 38t85.5 37t95.5 39v137q0 21 -1 33.5t-8.5 36.5t-22 38t-44.5 25.5t-73 11.5q-53 0 -108 -16t-91 -47q0 -70 -26.5 -124t-71.5 -54q-18 0 -30.5 13.5t-12.5 29.5q0 59 39.5 111.5t99.5 86.5 t127.5 54t126.5 20q45 0 79 -7.5t57 -18t38 -32t23.5 -39t12.5 -51t4.5 -55.5t0.5 -63v-326q0 -35 0.5 -53.5t3 -47t8 -44.5t16 -36t25.5 -32t38 -23t53 -18l-66 -92q-60 0 -120.5 58.5t-69.5 136.5q-65 -74 -160 -134.5t-174 -60.5q-83 0 -130.5 52.5t-47.5 138.5zM195 190 q0 -58 29.5 -91t86.5 -33q75 0 145.5 48t116.5 119v261q-69 -25 -111.5 -42t-99 -46.5t-89 -58t-55.5 -69.5t-23 -88zM260 1126q0 29 19.5 49.5t48.5 20.5t48 -20t19 -50q0 -29 -19 -48t-48 -19t-48.5 19t-19.5 48zM481 1126q0 29 19.5 49.5t48.5 20.5t48 -20t19 -50 q0 -29 -19 -48t-48 -19t-48.5 19t-19.5 48z" />
<glyph unicode="&#xe5;" horiz-adv-x="872" d="M68 158q0 30 8.5 58t20.5 51.5t37.5 47.5t47 42t61 40.5t68.5 37.5t81 38t85.5 37t95.5 39v137q0 21 -1 33.5t-8.5 36.5t-22 38t-44.5 25.5t-73 11.5q-53 0 -108 -16t-91 -47q0 -70 -26.5 -124t-71.5 -54q-18 0 -30.5 13.5t-12.5 29.5q0 59 39.5 111.5t99.5 86.5 t127.5 54t126.5 20q45 0 79 -7.5t57 -18t38 -32t23.5 -39t12.5 -51t4.5 -55.5t0.5 -63v-326q0 -35 0.5 -53.5t3 -47t8 -44.5t16 -36t25.5 -32t38 -23t53 -18l-66 -92q-60 0 -120.5 58.5t-69.5 136.5q-65 -74 -160 -134.5t-174 -60.5q-83 0 -130.5 52.5t-47.5 138.5zM195 190 q0 -58 29.5 -91t86.5 -33q75 0 145.5 48t116.5 119v261q-69 -25 -111.5 -42t-99 -46.5t-89 -58t-55.5 -69.5t-23 -88zM258 1165q0 75 52.5 128t127.5 53t127.5 -53t52.5 -128t-52.5 -127.5t-127.5 -52.5t-127.5 52.5t-52.5 127.5zM313 1165q0 -53 36.5 -89t88.5 -36t88.5 36 t36.5 89t-36.5 89t-88.5 36t-88.5 -36t-36.5 -89z" />
<glyph unicode="&#xe6;" horiz-adv-x="1366" d="M68 158q0 30 8.5 58t20.5 51.5t37.5 47.5t47 42t61 40.5t68.5 37.5t81 38t85.5 37t95.5 39v137q0 21 -1 33.5t-8.5 36.5t-22 38t-44.5 25.5t-73 11.5q-53 0 -108 -16t-91 -47q0 -70 -26.5 -124t-71.5 -54q-18 0 -30.5 13.5t-12.5 29.5q0 59 39.5 111.5t99.5 86.5 t127.5 54t126.5 20q41 0 72 -5.5t61.5 -20.5t47 -46.5t16.5 -78.5h4q105 151 283 151q62 0 116 -23t95 -65.5t71 -87.5t60 -104q-334 -107 -611 -170q4 -84 23.5 -152.5t58 -125.5t104.5 -88.5t154 -31.5q151 0 262 105l29 -31q-155 -164 -375 -164q-120 0 -205 61t-133 169 q-71 -89 -172 -159.5t-192 -70.5q-83 0 -130.5 52.5t-47.5 138.5zM195 190q0 -58 29.5 -91t86.5 -33q75 0 145.5 48t116.5 119v261q-69 -25 -111.5 -42t-99 -46.5t-89 -58t-55.5 -69.5t-23 -88zM692 508l461 123q-32 87 -91 153t-136 66q-69 0 -124 -54.5t-82.5 -131.5 t-27.5 -156z" />
<glyph unicode="&#xe7;" horiz-adv-x="872" d="M72 422q0 116 40.5 211t105.5 152.5t141 88.5t153 31q67 0 123.5 -21t89 -51.5t50.5 -60t18 -51.5q0 -23 -15 -37t-39 -14q-46 0 -81.5 54.5t-47.5 109.5q-35 22 -98 22q-33 0 -69.5 -8t-82.5 -33t-81.5 -64.5t-61 -110.5t-27.5 -163q-3 -178 91 -299t262 -121 q154 0 258 101l26 -33q-64 -75 -156.5 -116.5t-191.5 -41.5h-4q-33 -47 -33 -51q0 -10 16 -17t64 -14q16 -3 34 -7.5t46 -15t46 -29t18 -42.5q0 -43 -34 -73t-75 -42t-80 -12q-17 0 -37.5 3.5t-43 10.5t-37.5 21t-15 33q0 13 10 19.5t23 6.5q44 0 78 -55q15 -6 34 -6 q35 0 66 19t31 51q0 47 -119 67q-56 9 -77 19t-21 28q0 26 51 92q-165 20 -256.5 144t-91.5 305z" />
<glyph unicode="&#xe8;" horiz-adv-x="872" d="M66 410q0 89 24.5 175t70.5 158.5t122 117t170 44.5q62 0 116 -23t95 -65.5t71 -87.5t60 -104q-334 -107 -611 -170q4 -84 23.5 -152.5t58 -125.5t104.5 -88.5t154 -31.5q151 0 262 105l29 -31q-155 -164 -375 -164q-92 0 -165 36.5t-117.5 99.5t-68 141t-23.5 166z M180 1190l6 8q5 9 7.5 12t8 11t9.5 12l9 9t9.5 7t8.5 2q27 0 134 -82t138 -118l-27 -37q-205 132 -303 176zM184 508l461 123q-32 87 -91 153t-136 66q-69 0 -124 -54.5t-82.5 -131.5t-27.5 -156z" />
<glyph unicode="&#xe9;" horiz-adv-x="872" d="M66 410q0 89 24.5 175t70.5 158.5t122 117t170 44.5q62 0 116 -23t95 -65.5t71 -87.5t60 -104q-334 -107 -611 -170q4 -84 23.5 -152.5t58 -125.5t104.5 -88.5t154 -31.5q151 0 262 105l29 -31q-155 -164 -375 -164q-92 0 -165 36.5t-117.5 99.5t-68 141t-23.5 166z M184 508l461 123q-32 87 -91 153t-136 66q-69 0 -124 -54.5t-82.5 -131.5t-27.5 -156zM334 1051q31 36 138 118t134 82q4 0 8.5 -2t9.5 -7l9 -9t9.5 -12t8 -11t7.5 -12l6 -8q-102 -46 -304 -176z" />
<glyph unicode="&#xea;" horiz-adv-x="872" d="M66 410q0 89 24.5 175t70.5 158.5t122 117t170 44.5q62 0 116 -23t95 -65.5t71 -87.5t60 -104q-334 -107 -611 -170q4 -84 23.5 -152.5t58 -125.5t104.5 -88.5t154 -31.5q151 0 262 105l29 -31q-155 -164 -375 -164q-92 0 -165 36.5t-117.5 99.5t-68 141t-23.5 166z M162 1053q193 80 276 198q82 -117 275 -198q-51 -39 -56 -39q-35 0 -113 42.5t-106 73.5q-28 -31 -106 -73.5t-113 -42.5q-2 0 -5 1.5t-8 5l-10 7t-15 11t-19 14.5zM184 508l461 123q-32 87 -91 153t-136 66q-69 0 -124 -54.5t-82.5 -131.5t-27.5 -156z" />
<glyph unicode="&#xeb;" horiz-adv-x="872" d="M66 410q0 89 24.5 175t70.5 158.5t122 117t170 44.5q62 0 116 -23t95 -65.5t71 -87.5t60 -104q-334 -107 -611 -170q4 -84 23.5 -152.5t58 -125.5t104.5 -88.5t154 -31.5q151 0 262 105l29 -31q-155 -164 -375 -164q-92 0 -165 36.5t-117.5 99.5t-68 141t-23.5 166z M184 508l461 123q-32 87 -91 153t-136 66q-69 0 -124 -54.5t-82.5 -131.5t-27.5 -156zM260 1126q0 29 19.5 49.5t48.5 20.5t48 -20t19 -50q0 -29 -19 -48t-48 -19t-48.5 19t-19.5 48zM481 1126q0 29 19.5 49.5t48.5 20.5t48 -20t19 -50q0 -29 -19 -48t-48 -19t-48.5 19 t-19.5 48z" />
<glyph unicode="&#xec;" horiz-adv-x="530" d="M8 1190l6 8q5 9 7.5 12t8 11t9.5 12l9 9t9.5 7t8.5 2q27 0 134 -82t138 -118l-27 -37q-205 132 -303 176zM39 823v49q4 0 143 17q126 16 142 16v-547q0 -82 0.5 -130.5t5 -86.5t8.5 -54t16.5 -26t22.5 -11t33 -1h82v-49h-402v49h76q39 0 39 21v571q0 66 -3.5 105t-13 55 t-17 19t-24.5 3h-108z" />
<glyph unicode="&#xed;" horiz-adv-x="530" d="M39 823v49q4 0 143 17q126 16 142 16v-547q0 -82 0.5 -130.5t5 -86.5t8.5 -54t16.5 -26t22.5 -11t33 -1h82v-49h-402v49h76q39 0 39 21v571q0 66 -3.5 105t-13 55t-17 19t-24.5 3h-108zM141 1051q31 36 138.5 118t134.5 82q4 0 8.5 -2.5t9.5 -7t9 -9t9 -11t8 -11 t7.5 -11.5t5.5 -9q-98 -44 -303 -176z" />
<glyph unicode="&#xee;" horiz-adv-x="530" d="M-61 1053q193 80 276 198q82 -117 274 -198q-8 -7 -18 -14.5t-14.5 -11t-9.5 -7t-8 -5t-5 -1.5q-35 0 -113 42.5t-106 73.5q-28 -31 -106 -73.5t-113 -42.5q-2 0 -5 1.5t-8 5l-10 7t-15 11t-19 14.5zM39 823v49q4 0 143 17q126 16 142 16v-547q0 -82 0.5 -130.5t5 -86.5 t8.5 -54t16.5 -26t22.5 -11t33 -1h82v-49h-402v49h76q39 0 39 21v571q0 66 -3.5 105t-13 55t-17 19t-24.5 3h-108z" />
<glyph unicode="&#xef;" horiz-adv-x="530" d="M39 823v49q4 0 143 17q126 16 142 16v-547q0 -82 0.5 -130.5t5 -86.5t8.5 -54t16.5 -26t22.5 -11t33 -1h82v-49h-402v49h76q39 0 39 21v571q0 66 -3.5 105t-13 55t-17 19t-24.5 3h-108zM47 1126q0 29 19.5 49.5t48.5 20.5t48 -20t19 -50q0 -29 -19 -48t-48 -19t-48.5 19 t-19.5 48zM268 1126q0 29 19.5 49.5t48.5 20.5t48 -20t19 -50q0 -29 -19 -48t-48 -19t-48.5 19t-19.5 48z" />
<glyph unicode="&#xf0;" horiz-adv-x="1024" d="M86 408q0 106 31.5 193t80.5 142t110.5 93t119 53.5t109.5 15.5q20 0 43 -3.5t60 -14.5t75 -39.5t69 -69.5l4 4q-71 261 -213 424l-223 -172l-41 45l224 172q-121 124 -267 162l74 45q159 -53 266 -149l197 153l41 -45l-193 -149q82 -78 142 -179t89 -197.5t41.5 -172 t12.5 -133.5q0 -305 -123.5 -462t-335.5 -157q-177 0 -285 125t-108 316zM215 446q0 -77 18 -148.5t54.5 -133t99 -98.5t143.5 -37q65 0 115 23.5t80.5 62t50 93.5t26.5 111t7 121q0 79 -18.5 149.5t-55 128.5t-99 92t-142.5 34t-137.5 -35t-87 -95.5t-42 -125.5t-12.5 -142 z" />
<glyph unicode="&#xf1;" horiz-adv-x="1099" d="M27 823v49q4 0 143 17q126 16 141 16v-164q95 79 176 121.5t172 42.5q70 0 120.5 -22t77 -59.5t38.5 -80t12 -92.5v-293q0 -82 0.5 -130.5t5 -86.5t8.5 -54t16.5 -26t22.5 -11t33 -1h82v-49h-401v49h76q38 0 38 21v534q0 209 -170 209q-85 0 -157.5 -35t-149.5 -100v-320 q0 -82 0.5 -130.5t5 -86.5t8.5 -54t16.5 -26t22.5 -11t33 -1h82v-49h-401v49h76q39 0 39 21v571q0 66 -3.5 105t-13 55t-17 19t-24.5 3h-108zM307 1075q8 56 41.5 89.5t87.5 33.5q47 0 123 -31q79 -30 113 -30q33 0 52 16.5t34 50.5l35 -12q-8 -62 -41 -99.5t-93 -37.5 q-50 0 -127 30q-11 4 -31.5 12.5t-28 11l-19.5 6.5t-19 5.5t-14 1.5q-49 0 -78 -57z" />
<glyph unicode="&#xf2;" horiz-adv-x="1024" d="M86 408q0 106 31.5 193t80.5 142t110.5 93t119 53.5t109.5 15.5q182 0 291.5 -124t109.5 -316q0 -106 -31.5 -193t-80.5 -142t-110.5 -93t-119 -54t-109.5 -16q-182 0 -291.5 124.5t-109.5 316.5zM215 446q0 -77 18 -148.5t54.5 -133t99 -98.5t143.5 -37q80 0 137.5 35 t87 95t42 125.5t12.5 141.5q0 77 -18 149t-54.5 133.5t-99 98.5t-143.5 37q-80 0 -137.5 -35t-87 -95.5t-42 -125.5t-12.5 -142zM276 1190l6 8q5 9 7.5 12t8 11t9.5 12l9 9t9.5 7t8.5 2q27 0 134 -82t138 -118l-26 -37q-202 130 -304 176z" />
<glyph unicode="&#xf3;" horiz-adv-x="1024" d="M86 408q0 106 31.5 193t80.5 142t110.5 93t119 53.5t109.5 15.5q182 0 291.5 -124t109.5 -316q0 -106 -31.5 -193t-80.5 -142t-110.5 -93t-119 -54t-109.5 -16q-182 0 -291.5 124.5t-109.5 316.5zM215 446q0 -77 18 -148.5t54.5 -133t99 -98.5t143.5 -37q80 0 137.5 35 t87 95t42 125.5t12.5 141.5q0 77 -18 149t-54.5 133.5t-99 98.5t-143.5 37q-80 0 -137.5 -35t-87 -95.5t-42 -125.5t-12.5 -142zM430 1051q31 36 138 118t134 82q4 0 8.5 -2t9.5 -7l9 -9t9.5 -12t8 -11t7.5 -12l6 -8q-98 -44 -303 -176z" />
<glyph unicode="&#xf4;" horiz-adv-x="1024" d="M86 408q0 106 31.5 193t80.5 142t110.5 93t119 53.5t109.5 15.5q182 0 291.5 -124t109.5 -316q0 -106 -31.5 -193t-80.5 -142t-110.5 -93t-119 -54t-109.5 -16q-182 0 -291.5 124.5t-109.5 316.5zM215 446q0 -77 18 -148.5t54.5 -133t99 -98.5t143.5 -37q80 0 137.5 35 t87 95t42 125.5t12.5 141.5q0 77 -18 149t-54.5 133.5t-99 98.5t-143.5 37q-80 0 -137.5 -35t-87 -95.5t-42 -125.5t-12.5 -142zM238 1053q193 80 276 198q82 -117 274 -198q-8 -7 -18 -14.5t-14.5 -11t-9.5 -7t-8 -5t-5 -1.5q-35 0 -113 42.5t-106 73.5q-28 -31 -106 -73.5 t-113 -42.5q-2 0 -5 1.5t-8 5l-10 7t-15 11t-19 14.5z" />
<glyph unicode="&#xf5;" horiz-adv-x="1024" d="M86 408q0 106 31.5 193t80.5 142t110.5 93t119 53.5t109.5 15.5q182 0 291.5 -124t109.5 -316q0 -106 -31.5 -193t-80.5 -142t-110.5 -93t-119 -54t-109.5 -16q-182 0 -291.5 124.5t-109.5 316.5zM215 446q0 -77 18 -148.5t54.5 -133t99 -98.5t143.5 -37q80 0 137.5 35 t87 95t42 125.5t12.5 141.5q0 77 -18 149t-54.5 133.5t-99 98.5t-143.5 37q-80 0 -137.5 -35t-87 -95.5t-42 -125.5t-12.5 -142zM270 1075q8 56 41.5 89.5t87.5 33.5q47 0 123 -31q79 -30 113 -30q33 0 52 16.5t34 50.5l35 -12q-8 -62 -40.5 -99.5t-92.5 -37.5 q-50 0 -127 30q-95 37 -113 37q-49 0 -78 -57z" />
<glyph unicode="&#xf6;" horiz-adv-x="1024" d="M86 408q0 106 31.5 193t80.5 142t110.5 93t119 53.5t109.5 15.5q182 0 291.5 -124t109.5 -316q0 -106 -31.5 -193t-80.5 -142t-110.5 -93t-119 -54t-109.5 -16q-182 0 -291.5 124.5t-109.5 316.5zM215 446q0 -77 18 -148.5t54.5 -133t99 -98.5t143.5 -37q80 0 137.5 35 t87 95t42 125.5t12.5 141.5q0 77 -18 149t-54.5 133.5t-99 98.5t-143.5 37q-80 0 -137.5 -35t-87 -95.5t-42 -125.5t-12.5 -142zM336 1126q0 30 19 50t48 20t48.5 -20.5t19.5 -49.5t-19.5 -48t-48.5 -19t-48 19t-19 48zM557 1126q0 29 19.5 49.5t48.5 20.5t48 -20t19 -50 q0 -29 -19 -48t-48 -19t-48.5 19t-19.5 48z" />
<glyph unicode="&#xf7;" d="M113 528v78h835v-78h-835zM453 250q0 32 22.5 55t54.5 23q33 0 55.5 -22.5t22.5 -55.5q0 -34 -22 -56t-56 -22q-32 0 -54.5 22t-22.5 56zM453 883q0 33 22.5 55.5t54.5 22.5q34 0 56 -22t22 -56q0 -33 -22.5 -55.5t-55.5 -22.5q-32 0 -54.5 23t-22.5 55z" />
<glyph unicode="&#xf8;" horiz-adv-x="1024" d="M86 408q0 106 31.5 193t80.5 142t110.5 93t119 53.5t109.5 15.5q115 0 200 -51l74 123h57l-90 -150q77 -60 118.5 -154t41.5 -208q0 -106 -31.5 -193t-80.5 -142t-110.5 -93t-119 -54t-109.5 -16q-115 0 -198 53l-76 -124h-57l92 151q-78 57 -120 151.5t-42 209.5z M215 446q0 -185 90 -305l379 627q-73 76 -190 76q-80 0 -137.5 -35t-87 -95.5t-42 -125.5t-12.5 -142zM338 102q79 -73 192 -73q80 0 137.5 35t87 95t42 125.5t12.5 141.5q0 190 -90 305z" />
<glyph unicode="&#xf9;" horiz-adv-x="1099" d="M27 823v49q4 0 143 17q126 16 141 16v-547q0 -39 0.5 -59.5t2.5 -54t7 -51t13.5 -41.5t22.5 -37t33 -25.5t46.5 -18t61.5 -5.5q73 0 146 37t128 96v442q0 66 -3.5 105t-12.5 55t-16.5 19t-24.5 3h-109v49q5 0 144 17q126 16 141 16v-592q0 -42 1 -62.5t4.5 -53 t12.5 -49.5t24.5 -37t41.5 -32t61 -20l-65 -92q-72 9 -122.5 59t-66.5 119q-92 -85 -170 -131.5t-168 -46.5q-41 0 -74.5 9.5t-58 23t-44 39.5t-31.5 47.5t-21 59.5t-13 63.5t-6 70.5t-2.5 69.5t-0.5 72.5v2v217q0 66 -3.5 105t-13 55t-17 19t-24.5 3h-108zM272 1190l6 8 q5 9 7.5 12t8 11t9.5 12l9 9t9.5 7t8.5 2q27 0 134 -82t138 -118l-27 -37q-205 132 -303 176z" />
<glyph unicode="&#xfa;" horiz-adv-x="1099" d="M27 823v49q4 0 143 17q126 16 141 16v-547q0 -39 0.5 -59.5t2.5 -54t7 -51t13.5 -41.5t22.5 -37t33 -25.5t46.5 -18t61.5 -5.5q73 0 146 37t128 96v442q0 66 -3.5 105t-12.5 55t-16.5 19t-24.5 3h-109v49q5 0 144 17q126 16 141 16v-592q0 -42 1 -62.5t4.5 -53 t12.5 -49.5t24.5 -37t41.5 -32t61 -20l-65 -92q-72 9 -122.5 59t-66.5 119q-92 -85 -170 -131.5t-168 -46.5q-41 0 -74.5 9.5t-58 23t-44 39.5t-31.5 47.5t-21 59.5t-13 63.5t-6 70.5t-2.5 69.5t-0.5 72.5v2v217q0 66 -3.5 105t-13 55t-17 19t-24.5 3h-108zM426 1051 q31 36 138 118t134 82q4 0 8.5 -2t9.5 -7l9 -9t9.5 -12t8 -11t7.5 -12l6 -8q-98 -44 -303 -176z" />
<glyph unicode="&#xfb;" horiz-adv-x="1099" d="M27 823v49q4 0 143 17q126 16 141 16v-547q0 -39 0.5 -59.5t2.5 -54t7 -51t13.5 -41.5t22.5 -37t33 -25.5t46.5 -18t61.5 -5.5q73 0 146 37t128 96v442q0 66 -3.5 105t-12.5 55t-16.5 19t-24.5 3h-109v49q5 0 144 17q126 16 141 16v-592q0 -42 1 -62.5t4.5 -53 t12.5 -49.5t24.5 -37t41.5 -32t61 -20l-65 -92q-72 9 -122.5 59t-66.5 119q-92 -85 -170 -131.5t-168 -46.5q-41 0 -74.5 9.5t-58 23t-44 39.5t-31.5 47.5t-21 59.5t-13 63.5t-6 70.5t-2.5 69.5t-0.5 72.5v2v217q0 66 -3.5 105t-13 55t-17 19t-24.5 3h-108zM254 1053 q193 80 276 198q82 -117 275 -198q-8 -7 -18 -14.5t-14.5 -11t-9.5 -7t-8 -5t-5 -1.5q-35 0 -113.5 42.5t-106.5 73.5q-28 -31 -106 -73.5t-113 -42.5q-2 0 -5 1.5t-8 5l-10 7t-15 11t-19 14.5z" />
<glyph unicode="&#xfc;" horiz-adv-x="1099" d="M27 823v49q4 0 143 17q126 16 141 16v-547q0 -39 0.5 -59.5t2.5 -54t7 -51t13.5 -41.5t22.5 -37t33 -25.5t46.5 -18t61.5 -5.5q73 0 146 37t128 96v442q0 66 -3.5 105t-12.5 55t-16.5 19t-24.5 3h-109v49q5 0 144 17q126 16 141 16v-592q0 -42 1 -62.5t4.5 -53 t12.5 -49.5t24.5 -37t41.5 -32t61 -20l-65 -92q-72 9 -122.5 59t-66.5 119q-92 -85 -170 -131.5t-168 -46.5q-41 0 -74.5 9.5t-58 23t-44 39.5t-31.5 47.5t-21 59.5t-13 63.5t-6 70.5t-2.5 69.5t-0.5 72.5v2v217q0 66 -3.5 105t-13 55t-17 19t-24.5 3h-108zM373 1126 q0 30 19 50t48 20t48.5 -20.5t19.5 -49.5t-19.5 -48t-48.5 -19t-48 19t-19 48zM594 1126q0 29 19.5 49.5t48.5 20.5t48 -20t19 -50q0 -29 -19 -48t-48 -19t-48.5 19t-19.5 48z" />
<glyph unicode="&#xfd;" horiz-adv-x="948" d="M4 823v49h373v-49h-101q-32 0 -32 -12q0 -7 19 -56t54.5 -133t65.5 -155.5t73.5 -172t57.5 -134.5q234 501 234 631q0 16 -7.5 23t-15.5 8t-27 1h-92v49h342v-49h-69h-13t-8.5 -2t-6.5 -3t-5 -7.5t-5.5 -11.5t-7 -18.5t-10.5 -24.5q-47 -116 -141 -340.5t-232 -534 t-178 -362.5q-105 -27 -211 -27q-10 0 -17 7t-7 18q0 6 6 10t27 14q4 2 21 9.5t25.5 11.5t27.5 15.5t32 23t35 32t40 44t42.5 58t48 75t51.5 94.5t56 116l-291 678q-32 74 -51.5 99.5t-47.5 25.5h-55zM393 1051q31 36 138.5 118t134.5 82q4 0 8.5 -2.5t9.5 -7t9 -9t9 -11 t8 -11t7.5 -11.5t5.5 -9q-98 -44 -303 -176z" />
<glyph unicode="&#xfe;" horiz-adv-x="1099" d="M45 1348v49q142 9 285 47v-692q113 83 183.5 118t152.5 35q87 0 156 -39.5t109.5 -104.5t61.5 -142t21 -160q0 -133 -50.5 -243.5t-152.5 -179.5t-238 -69q-133 0 -243 72v-186q0 -82 0.5 -130.5t5 -86.5t8.5 -54.5t16.5 -26.5t22.5 -11t33 -1h82v-49h-402v49h76 q39 0 39 21v1601q0 87 -8 128t-17.5 48t-31.5 7h-109zM330 102q102 -79 223 -79q110 0 188 56.5t113 145.5t35 201q0 75 -17.5 141.5t-52.5 121t-95 86.5t-138 32q-74 0 -132 -29.5t-124 -89.5v-586z" />
<glyph unicode="&#xff;" horiz-adv-x="948" d="M4 823v49h373v-49h-101q-32 0 -32 -12q0 -7 19 -56t54.5 -133t65.5 -155.5t73.5 -172t57.5 -134.5q234 501 234 631q0 16 -7.5 23t-15.5 8t-27 1h-92v49h342v-49h-69h-13t-8.5 -2t-6.5 -3t-5 -7.5t-5.5 -11.5t-7 -18.5t-10.5 -24.5q-47 -116 -141 -340.5t-232 -534 t-178 -362.5q-105 -27 -211 -27q-10 0 -17 7t-7 18q0 6 6 10t27 14q4 2 21 9.5t25.5 11.5t27.5 15.5t32 23t35 32t40 44t42.5 58t48 75t51.5 94.5t56 116l-291 678q-32 74 -51.5 99.5t-47.5 25.5h-55zM317 1126q0 29 19.5 49.5t48.5 20.5t48.5 -20.5t19.5 -49.5t-19.5 -48 t-48.5 -19t-48.5 19t-19.5 48zM539 1126q0 30 19 50t48 20t48.5 -20.5t19.5 -49.5t-19.5 -48t-48.5 -19t-48 19t-19 48z" />
<glyph unicode="&#x152;" horiz-adv-x="1959" d="M106 614q0 131 45 243.5t122 192.5t178.5 137.5t216 85t233.5 27.5h922l-21 -141q0 -2 -1 -7q-4 -25 -11 -27l-6 -1q-17 0 -21 25q-3 23 -18 34.5t-43 20.5q-92 29 -303 29h-152q-76 0 -76 -21v-467h195q141 0 209 8.5t82 21t14 38.5v82h51v-340h-51v76q0 29 -11 37 q-22 15 -166 16h-62h-261v-330q0 -74 1 -121t6 -80.5t8.5 -49.5t16 -24.5t21.5 -9.5t31 -1h131q406 0 447 100q8 20 22 20q15 0 15 -14q0 -12 -51 -174h-873q-4 0 -66.5 -4t-113.5 -4q-314 0 -487 167t-173 455zM246 668q0 -177 68.5 -315t197.5 -216t299 -78q54 0 84.5 1 t68.5 5.5t56 15.5t18 28v1007q0 36 -2.5 53t-9.5 32.5t-26.5 20.5t-46.5 8t-76 3q-279 0 -455 -156t-176 -409z" />
<glyph unicode="&#x153;" horiz-adv-x="1593" d="M86 408q0 106 31.5 193t80.5 142.5t110.5 93.5t119 53.5t109.5 14.5q111 -1 199 -57t138 -154q47 95 133 153t189 58q62 0 116 -23t95 -65.5t71 -87.5t60 -104q-337 -107 -610 -170q4 -84 23.5 -152.5t58 -125.5t104.5 -88.5t154 -31.5q151 0 262 105l29 -31 q-155 -164 -375 -164q-109 0 -197.5 57t-132.5 156q-58 -98 -155 -155.5t-212 -57.5q-182 -1 -291.5 124t-109.5 317zM215 446q0 -77 18 -148.5t54.5 -133t99 -98.5t143.5 -37q80 0 137.5 35t87 95t42 125.5t12.5 141.5q0 77 -18 149t-54.5 133.5t-99 98.5t-143.5 37 q-80 0 -137.5 -35t-87 -95.5t-42 -125.5t-12.5 -142zM928 508l461 123q-31 86 -91 152.5t-137 66.5q-69 0 -124 -54.5t-82 -131.5t-27 -156z" />
<glyph unicode="&#x178;" horiz-adv-x="1099" d="M-31 1245v55h420v-55h-94q-24 0 -29.5 -1t-5.5 -7q0 -8 55 -104t154 -263.5t137 -234.5q230 432 268 519q21 48 21 63q0 20 -7 24t-24 4h-131v55h367v-55h-70q-20 0 -30.5 -12.5t-28.5 -48.5l-334 -617v-213q0 -141 8.5 -207.5t20.5 -79t39 -12.5h114v-55h-440v55h84 q41 0 41 21v489q-53 88 -140 234.5t-137 229.5t-88 142q-34 53 -49 63.5t-51 10.5h-70zM393 1554q0 29 19.5 49.5t48.5 20.5t48 -20t19 -50q0 -29 -19 -48t-48 -19t-48.5 19t-19.5 48zM614 1554q0 29 19.5 49.5t48.5 20.5t48.5 -20.5t19.5 -49.5t-19.5 -48t-48.5 -19 t-48.5 19t-19.5 48z" />
<glyph unicode="&#x2c6;" horiz-adv-x="530" d="M-10 1053q193 80 276 198q82 -117 275 -198q-51 -39 -56 -39q-35 0 -113 42.5t-106 73.5q-28 -31 -106 -73.5t-113 -42.5q-2 0 -5 1.5t-8 5l-10 7t-15 11t-19 14.5z" />
<glyph unicode="&#x2dc;" horiz-adv-x="530" d="M23 1075q8 56 41.5 89.5t87.5 33.5q46 0 122 -31q79 -30 113 -30q33 0 52 16.5t34 50.5l35 -12q-8 -62 -40.5 -99.5t-92.5 -37.5q-50 0 -127 30q-95 37 -113 37q-49 0 -78 -57z" />
<glyph unicode="&#x2000;" horiz-adv-x="871" />
<glyph unicode="&#x2001;" horiz-adv-x="1743" />
<glyph unicode="&#x2002;" horiz-adv-x="871" />
<glyph unicode="&#x2003;" horiz-adv-x="1743" />
<glyph unicode="&#x2004;" horiz-adv-x="581" />
<glyph unicode="&#x2005;" horiz-adv-x="435" />
<glyph unicode="&#x2006;" horiz-adv-x="290" />
<glyph unicode="&#x2007;" horiz-adv-x="290" />
<glyph unicode="&#x2008;" horiz-adv-x="217" />
<glyph unicode="&#x2009;" horiz-adv-x="348" />
<glyph unicode="&#x200a;" horiz-adv-x="96" />
<glyph unicode="&#x2010;" horiz-adv-x="681" d="M70 375q0 8 67 114h342q39 0 68.5 4.5t44.5 8.5t18 4q4 -4 4 -6t-0.5 -4.5t-2 -6.5t-3 -7.5t-4.5 -9.5t-6 -11t-8.5 -14.5t-10 -17.5t-12 -21t-14.5 -25h-408q-33 0 -50 -7t-19 -7q-6 0 -6 6z" />
<glyph unicode="&#x2011;" horiz-adv-x="681" d="M70 375q0 8 67 114h342q39 0 68.5 4.5t44.5 8.5t18 4q4 -4 4 -6t-0.5 -4.5t-2 -6.5t-3 -7.5t-4.5 -9.5t-6 -11t-8.5 -14.5t-10 -17.5t-12 -21t-14.5 -25h-408q-33 0 -50 -7t-19 -7q-6 0 -6 6z" />
<glyph unicode="&#x2012;" horiz-adv-x="681" d="M70 375q0 8 67 114h342q39 0 68.5 4.5t44.5 8.5t18 4q4 -4 4 -6t-0.5 -4.5t-2 -6.5t-3 -7.5t-4.5 -9.5t-6 -11t-8.5 -14.5t-10 -17.5t-12 -21t-14.5 -25h-408q-33 0 -50 -7t-19 -7q-6 0 -6 6z" />
<glyph unicode="&#x2013;" horiz-adv-x="1024" d="M0 383v106h1024v-106h-1024z" />
<glyph unicode="&#x2014;" horiz-adv-x="2048" d="M0 383v106h2048v-106h-2048z" />
<glyph unicode="&#x2018;" horiz-adv-x="378" d="M82 1081q0 76 42 143.5t109 114.5l29 -30q-119 -103 -119 -203q0 -58 41 -74q24 8 41 8q31 0 50.5 -18.5t19.5 -48.5q0 -33 -22 -51.5t-54 -18.5q-60 0 -98.5 58t-38.5 120z" />
<glyph unicode="&#x2019;" horiz-adv-x="378" d="M84 1270q0 32 22 50.5t54 18.5q60 0 98.5 -58t38.5 -120q0 -76 -42.5 -143.5t-109.5 -114.5l-28 31q119 103 119 203q0 57 -41 73q-24 -8 -41 -8q-31 0 -50.5 18.5t-19.5 49.5z" />
<glyph unicode="&#x201a;" horiz-adv-x="378" d="M84 41q0 33 22 51.5t54 18.5q60 0 98.5 -58.5t38.5 -120.5q0 -76 -42.5 -143.5t-109.5 -114.5l-28 31q119 103 119 203q0 58 -41 74q-23 -9 -41 -9q-31 0 -50.5 18.5t-19.5 49.5z" />
<glyph unicode="&#x201c;" horiz-adv-x="720" d="M96 1081q0 76 42.5 143.5t109.5 114.5l28 -30q-118 -102 -118 -203q0 -58 41 -74q24 8 41 8q31 0 50 -18t19 -49q0 -33 -22 -51.5t-54 -18.5q-60 0 -98.5 58t-38.5 120zM412 1081q0 76 42 143.5t109 114.5l29 -30q-119 -103 -119 -203q0 -58 41 -74q24 8 41 8 q31 0 50.5 -18.5t19.5 -48.5q0 -33 -22 -51.5t-54 -18.5q-60 0 -98.5 58t-38.5 120z" />
<glyph unicode="&#x201d;" horiz-adv-x="720" d="M96 1270q0 32 22 50.5t54 18.5q60 0 98.5 -58t38.5 -120q0 -76 -42 -143.5t-109 -114.5l-29 31q119 103 119 203q0 57 -41 73q-24 -8 -41 -8q-31 0 -50.5 18.5t-19.5 49.5zM412 1270q0 32 21.5 50.5t53.5 18.5q60 0 99 -58t39 -120q0 -76 -42.5 -143.5t-109.5 -114.5 l-29 31q119 103 119 203q0 57 -41 73q-24 -8 -41 -8q-31 0 -50 18.5t-19 49.5z" />
<glyph unicode="&#x201e;" horiz-adv-x="720" d="M96 41q0 33 22 51.5t54 18.5q60 0 98.5 -58.5t38.5 -120.5q0 -76 -42 -143.5t-109 -114.5l-29 31q119 103 119 203q0 58 -41 74q-22 -9 -41 -9q-31 0 -50.5 18.5t-19.5 49.5zM412 41q0 33 21.5 51.5t53.5 18.5q60 0 99 -58.5t39 -120.5q0 -76 -42.5 -143.5t-109.5 -114.5 l-29 31q119 103 119 203q0 58 -41 74q-22 -9 -41 -9q-31 0 -50 18.5t-19 49.5z" />
<glyph unicode="&#x2022;" horiz-adv-x="1024" d="M240 649q0 113 80 193t192 80t192 -80t80 -193t-80 -192.5t-192 -79.5t-192 79.5t-80 192.5z" />
<glyph unicode="&#x2026;" horiz-adv-x="2048" d="M258 55q0 38 23.5 60t60.5 22t60.5 -22t23.5 -60t-23.5 -60t-60.5 -22t-60.5 22t-23.5 60zM940 55q0 38 23.5 60t60.5 22t60.5 -22t23.5 -60t-23.5 -60t-60.5 -22t-60.5 22t-23.5 60zM1622 55q0 38 23.5 60t60.5 22t60.5 -22t23.5 -60t-23.5 -60t-60.5 -22t-60.5 22 t-23.5 60z" />
<glyph unicode="&#x202f;" horiz-adv-x="348" />
<glyph unicode="&#x2039;" horiz-adv-x="681" d="M129 436q108 73 189.5 176t123.5 222l56 -29q-69 -217 -201 -369q133 -153 201 -368l-56 -29q-42 119 -123.5 221.5t-189.5 175.5z" />
<glyph unicode="&#x203a;" horiz-adv-x="681" d="M184 68q68 215 201 368q-132 152 -201 369l56 29q42 -119 123.5 -222t189.5 -176q-108 -73 -189.5 -175.5t-123.5 -221.5z" />
<glyph unicode="&#x205f;" horiz-adv-x="435" />
<glyph unicode="&#x20ac;" d="M68 520l10 58h135q0 74 12 176h-149l10 57h147q33 150 118.5 272t198 189t228.5 67q114 0 250 -71l-10 -123q0 -1 -0.5 -5.5t-1 -6t-1.5 -6t-2 -6.5l-2.5 -5t-3.5 -4.5t-5 -2.5t-7 -1q-20 0 -20 27q0 40 -31 65q-80 66 -180 66q-181 0 -285 -121.5t-133 -333.5h535 l-11 -57h-532q-2 -29 -2 -86q0 -32 4 -90h500l-11 -58h-483q14 -118 58.5 -223t113.5 -172q93 -90 217 -90q156 0 285 115l33 -41q-61 -72 -155.5 -110t-195.5 -38q-114 0 -206.5 44.5t-152 121.5t-93 177.5t-37.5 215.5h-145z" />
<glyph unicode="&#x2122;" horiz-adv-x="2027" d="M35 1169q3 22 41 131h635q38 -109 41 -131q0 -14 -17 -14q-8 0 -12.5 6t-11.5 23q-13 24 -42.5 39t-74.5 20.5t-70.5 6.5t-68.5 1v-510q0 -115 6.5 -137t36.5 -22h82v-45h-355v45h86q12 0 16.5 4t4.5 14v651q-43 0 -68.5 -1t-70.5 -6.5t-74.5 -20.5t-42.5 -39 q-4 -11 -7.5 -16.5t-7.5 -9t-10 -3.5q-16 0 -16 14zM819 1255v45h232l264 -540l227 540h213v-45h-59q-21 0 -21 -20v-487q0 -120 6.5 -143t36.5 -23h68v-45h-313v45h59q14 0 17 6.5t3 32.5v559h-4l-252 -596q-14 -37 -18 -37q-5 0 -23 43l-260 567h-4v-334q0 -175 6 -208 t41 -33h64v-45h-244v45h57q23 0 23 14v508q0 31 -1 48.5t-5 40t-12.5 34t-24.5 20t-39 8.5h-37z" />
<glyph unicode="&#x25fc;" horiz-adv-x="870" d="M0 0v870h870v-870h-870z" />
</font>
</defs>
</svg>
